<svg width="32" height="35" viewBox="0 0 32 35" fill="none" xmlns="http://www.w3.org/2000/svg">
<path d="M31.4306 0L28.6191 31.4963L15.9811 35L3.37796 31.5013L0.569397 0H31.4306Z" fill="#264DE4"/>
<path d="M26.2121 29.4907L28.6147 2.57568H16V32.3219L26.2121 29.4907Z" fill="#2965F1"/>
<path d="M7.00797 14.259L7.35424 18.1225H16V14.259H7.00797Z" fill="#EBEBEB"/>
<path d="M16 6.43896H15.9867H6.31219L6.6634 10.3025H16V6.43896Z" fill="#EBEBEB"/>
<path d="M16 28.3125V24.2929L15.9831 24.2974L11.6803 23.1355L11.4052 20.0542H9.31438H7.52686L8.06813 26.1205L15.9822 28.3175L16 28.3125Z" fill="#EBEBEB"/>
<path d="M20.7441 18.1223L20.2957 23.1329L15.9867 24.296V28.3155L23.9071 26.1203L23.9652 25.4676L24.873 15.2963L24.9673 14.2588L25.6648 6.43896H15.9867V10.3025H21.4307L21.0792 14.2588H15.9867V18.1223H20.7441Z" fill="white"/>
</svg>
