<svg width="37" height="35" viewBox="0 0 37 35" fill="none" xmlns="http://www.w3.org/2000/svg">
<path d="M36.0978 0H0.902237V35H36.0978V0Z" fill="#F7DF1E"/>
<path d="M24.5447 27.3437C25.2536 28.4948 26.176 29.3409 27.8073 29.3409C29.1777 29.3409 30.0531 28.6598 30.0531 27.7187C30.0531 26.5909 29.1536 26.1915 27.6453 25.5353L26.8184 25.1826C24.4319 24.1715 22.8464 22.9048 22.8464 20.227C22.8464 17.7603 24.7363 15.8826 27.69 15.8826C29.7927 15.8826 31.3045 16.6103 32.3939 18.5159L29.8184 20.1603C29.2514 19.1492 28.6397 18.7509 27.69 18.7509C26.7212 18.7509 26.1073 19.362 26.1073 20.1603C26.1073 21.147 26.7218 21.5465 28.1408 22.1576L28.9676 22.5098C31.7777 23.7081 33.3643 24.9298 33.3643 27.6765C33.3643 30.6376 31.0251 32.2598 27.8838 32.2598C24.8123 32.2598 22.8279 30.8042 21.857 28.8965L24.5447 27.3437ZM12.8615 27.6287C13.381 28.5453 13.8536 29.3203 14.99 29.3203C16.0765 29.3203 16.762 28.8976 16.762 27.2537V16.0703H20.0693V27.2981C20.0693 30.7037 18.0615 32.2537 15.1307 32.2537C12.4827 32.2537 10.9492 30.8909 10.1693 29.2495L12.8615 27.6287Z" fill="black"/>
</svg>
