<svg width="59" height="35" viewBox="0 0 59 35" fill="none" xmlns="http://www.w3.org/2000/svg">
<path d="M14.1076 9.1285H25.1026V9.9982H15.1155V16.5439H24.507V17.4136H15.1155V24.6H25.2171V25.4697H14.1076V9.1285ZM26.0876 9.1285H27.2558L32.4326 16.315L37.724 9.1285L44.9211 0L33.0969 17.0703L39.19 25.4697H37.976L32.4326 17.8255L26.8664 25.4697H25.6753L31.8142 17.0703L26.0876 9.1285ZM39.6252 9.9982V9.1285H52.155V9.9982H46.3826V25.4697H45.3747V9.9982H39.6252Z" fill="black"/>
<path d="M0.352325 9.12817H1.61217L18.9847 34.9997L11.8055 25.4694L1.40602 10.3641L1.3602 25.4694H0.352325V9.12817Z" fill="black"/>
<path d="M52.0534 24.3378C52.2618 24.3378 52.4138 24.179 52.4138 23.9738C52.4138 23.7686 52.2618 23.6098 52.0534 23.6098C51.8475 23.6098 51.6931 23.7686 51.6931 23.9738C51.6931 24.179 51.8475 24.3378 52.0534 24.3378ZM53.0438 23.3802C53.0438 23.986 53.4826 24.3817 54.1224 24.3817C54.8039 24.3817 55.2157 23.9738 55.2157 23.2654V20.7713H54.6666V23.2629C54.6666 23.6562 54.468 23.8663 54.1175 23.8663C53.8037 23.8663 53.5904 23.6709 53.5831 23.3802H53.0438ZM55.934 23.3484C55.9732 23.9787 56.5002 24.3817 57.2847 24.3817C58.1231 24.3817 58.6477 23.9591 58.6477 23.2849C58.6477 22.7548 58.3486 22.4617 57.623 22.2931L57.2332 22.1979C56.7723 22.0904 56.586 21.9463 56.586 21.6947C56.586 21.3771 56.8753 21.1695 57.3092 21.1695C57.721 21.1695 58.0054 21.3722 58.0569 21.6971H58.5913C58.5594 21.1035 58.0348 20.6858 57.3166 20.6858C56.5444 20.6858 56.0296 21.1035 56.0296 21.7313C56.0296 22.2492 56.3213 22.557 56.9611 22.706L57.4171 22.8159C57.8853 22.9258 58.0912 23.0871 58.0912 23.3558C58.0912 23.6684 57.7676 23.8956 57.3264 23.8956C56.8532 23.8956 56.5248 23.6831 56.4782 23.3484H55.934Z" fill="black"/>
</svg>
