<svg width="33" height="35" viewBox="0 0 33 35" fill="none" xmlns="http://www.w3.org/2000/svg">
<path d="M16.5 20.3371C18.0669 20.3371 19.3371 19.0669 19.3371 17.5C19.3371 15.9331 18.0669 14.6628 16.5 14.6628C14.9331 14.6628 13.6629 15.9331 13.6629 17.5C13.6629 19.0669 14.9331 20.3371 16.5 20.3371Z" fill="#61DAFB"/>
<path fill-rule="evenodd" clip-rule="evenodd" d="M3.15985 16.0071C2.51646 16.5879 2.30499 17.0943 2.30499 17.4999C2.30499 17.9055 2.51646 18.4119 3.15985 18.9927C3.8028 19.5731 4.79122 20.1432 6.10039 20.643C8.7115 21.64 12.3881 22.2782 16.5 22.2782C20.612 22.2782 24.2885 21.64 26.8996 20.643C28.2088 20.1432 29.1972 19.5731 29.8402 18.9927C30.4836 18.4119 30.695 17.9055 30.695 17.4999C30.695 17.0943 30.4836 16.5879 29.8402 16.0071C29.1972 15.4267 28.2088 14.8566 26.8996 14.3567C24.2885 13.3598 20.612 12.7216 16.5 12.7216C12.3881 12.7216 8.7115 13.3598 6.10039 14.3567C4.79122 14.8566 3.8028 15.4267 3.15985 16.0071ZM5.37012 12.4227C8.26889 11.3159 12.2042 10.6528 16.5 10.6528C20.7958 10.6528 24.7311 11.3159 27.6299 12.4227C29.0757 12.9747 30.3167 13.6572 31.2145 14.4676C32.1118 15.2776 32.7523 16.3004 32.7523 17.4999C32.7523 18.6994 32.1118 19.7221 31.2145 20.5322C30.3167 21.3426 29.0757 22.0251 27.6299 22.5771C24.7311 23.6839 20.7958 24.3469 16.5 24.3469C12.2042 24.3469 8.26889 23.6839 5.37012 22.5771C3.92435 22.0251 2.68331 21.3426 1.78555 20.5322C0.888217 19.7221 0.247711 18.6994 0.247711 17.4999C0.247711 16.3004 0.888217 15.2776 1.78555 14.4676C2.68331 13.6572 3.92435 12.9747 5.37012 12.4227Z" fill="#61DAFB"/>
<path fill-rule="evenodd" clip-rule="evenodd" d="M11.1311 5.20288C10.3074 4.93642 9.76031 5.00513 9.40465 5.21047C9.04899 5.41581 8.71594 5.85527 8.53488 6.70178C8.3538 7.54836 8.35433 8.68859 8.57588 10.0714C9.01778 12.8296 10.3028 16.3313 12.3582 19.8913C14.4135 23.4513 16.8035 26.315 18.9713 28.0768C20.0581 28.9601 21.0453 29.5306 21.869 29.7971C22.6926 30.0636 23.2397 29.9949 23.5954 29.7895C23.951 29.5842 24.2841 29.1447 24.4652 28.2982C24.6462 27.4516 24.6457 26.3114 24.4242 24.9286C23.9822 22.1703 22.6972 18.6687 20.6419 15.1087C18.5865 11.5487 16.1965 8.68502 14.0287 6.9232C12.942 6.03992 11.9548 5.46935 11.1311 5.20288ZM15.3256 5.32151C17.7347 7.27951 20.2775 10.3573 22.426 14.0786C24.5745 17.8 25.9686 21.541 26.4597 24.6063C26.7046 26.1353 26.7341 27.5521 26.481 28.7352C26.228 29.9185 25.6627 30.9814 24.6283 31.5786C23.5939 32.1758 22.3907 32.1339 21.2395 31.7614C20.0883 31.389 18.8761 30.6551 17.6745 29.6785C15.2653 27.7205 12.7226 24.6427 10.574 20.9214C8.4255 17.2 7.03147 13.459 6.54036 10.3937C6.2954 8.86469 6.26592 7.4479 6.51899 6.26475C6.77206 5.08155 7.3373 4.01859 8.37172 3.42137C9.40614 2.82415 10.6093 2.86612 11.7605 3.23855C12.9117 3.61096 14.1239 4.34488 15.3256 5.32151Z" fill="#61DAFB"/>
<path fill-rule="evenodd" clip-rule="evenodd" d="M24.4651 6.70182C24.2841 5.8553 23.951 5.41585 23.5953 5.21051C23.2397 5.00517 22.6926 4.93646 21.8689 5.20291C21.0452 5.46939 20.058 6.03996 18.9712 6.92324C16.8035 8.68506 14.4135 11.5487 12.3581 15.1087C10.3028 18.6687 9.01774 22.1704 8.57584 24.9286C8.35429 26.3114 8.35376 27.4517 8.53484 28.2983C8.7159 29.1448 9.04895 29.5842 9.40461 29.7896C9.76027 29.9949 10.3074 30.0636 11.131 29.7972C11.9547 29.5307 12.9419 28.9601 14.0287 28.0768C16.1964 26.315 18.5865 23.4513 20.6418 19.8913C22.6972 16.3313 23.9822 12.8297 24.4241 10.0715C24.6457 8.68863 24.6462 7.54839 24.4651 6.70182ZM26.4596 10.3937C25.9685 13.459 24.5745 17.2 22.426 20.9214C20.2774 24.6428 17.7346 27.7205 15.3255 29.6785C14.1239 30.6551 12.9116 31.3891 11.7605 31.7615C10.6093 32.1339 9.4061 32.1759 8.37168 31.5787C7.33726 30.9814 6.77202 29.9185 6.51894 28.7353C6.26588 27.5521 6.29536 26.1353 6.54032 24.6064C7.03143 21.541 8.42546 17.8 10.574 14.0787C12.7225 10.3573 15.2653 7.27954 17.6744 5.32155C18.8761 4.34492 20.0883 3.611 21.2395 3.23859C22.3907 2.86615 23.5939 2.82418 24.6283 3.42141C25.6627 4.01863 26.2279 5.08158 26.481 6.26479C26.7341 7.44793 26.7046 8.86472 26.4596 10.3937Z" fill="#61DAFB"/>
</svg>
