<svg width="29" height="35" viewBox="0 0 29 35" fill="none" xmlns="http://www.w3.org/2000/svg">
<path d="M12.9555 0H18.6863V26.2661C15.7509 26.8214 13.5899 27.0398 11.2518 27.0398C4.2524 27.0325 0.608887 23.9055 0.608887 17.8999C0.608887 12.1135 4.47366 8.35815 10.4626 8.35815C11.392 8.35815 12.0999 8.43129 12.9555 8.6504V0ZM13.1563 13.3839C12.4851 13.1646 11.932 13.0916 11.2239 13.0916C8.32541 13.0916 6.65118 14.8596 6.65118 17.9581C6.65118 20.9749 8.25173 22.6406 11.1872 22.6406C11.8213 22.6406 12.3377 22.6049 13.1563 22.4953V13.3839Z" fill="#2BA977"/>
<path d="M28.0578 9.06333V22.2144C28.0578 26.7434 27.7186 28.9213 26.7228 30.7991C25.7935 32.6043 24.5692 33.7427 22.0394 35L16.7217 32.4941C19.2515 31.3184 20.4757 30.2796 21.2576 28.6942C22.0762 27.073 22.3343 25.1952 22.3343 20.2563V9.06344H28.0578V9.06333ZM21.7568 0H27.4876V5.82297H21.7568V0Z" fill="#2BA977"/>
</svg>
