<svg width="32" height="35" viewBox="0 0 32 35" fill="none" xmlns="http://www.w3.org/2000/svg">
<path fill-rule="evenodd" clip-rule="evenodd" d="M18.8237 4.01088L26.0205 8.16619C26.2283 7.94634 26.4667 7.75766 26.7284 7.60598C28.2209 6.74791 30.1247 7.25737 30.9916 8.75C31.8497 10.2426 31.3402 12.1463 29.8476 13.0132C29.5879 13.1628 29.3079 13.2743 29.0164 13.3442V21.6579C29.3047 21.7279 29.5816 21.8386 29.8387 21.9866C31.3402 22.8536 31.8497 24.7574 30.9828 26.25C30.1247 27.7425 28.212 28.252 26.7194 27.394C26.4302 27.2281 26.1697 27.0166 25.948 26.7677L18.795 30.8975C18.8997 31.2147 18.9529 31.5466 18.9526 31.8807C18.9526 33.5967 17.5584 35 15.8333 35C14.1083 35 12.7141 33.6056 12.7141 31.8807C12.7141 31.574 12.7582 31.2779 12.8403 30.9981L5.64548 26.844C5.43998 27.0595 5.2049 27.2447 4.94729 27.394C3.44578 28.252 1.54201 27.7425 0.683932 26.25C-0.17402 24.7574 0.335446 22.8536 1.82795 21.9866C2.08507 21.8386 2.36194 21.7278 2.65025 21.6577V13.3442C2.35876 13.2743 2.07883 13.1628 1.81907 13.0132C0.326442 12.1553 -0.183024 10.2426 0.67505 8.75C1.53312 7.25737 3.44566 6.74791 4.93829 7.60598C5.19857 7.75685 5.43583 7.94433 5.6428 8.16266L12.8416 4.00625C12.7568 3.71823 12.7138 3.41949 12.7141 3.11922C12.7141 1.39443 14.1083 0 15.8333 0C17.5584 0 18.9526 1.39431 18.9526 3.11922C18.9526 3.42926 18.9075 3.72846 18.8237 4.01088ZM18.0739 5.29118L25.2879 9.45622C25.173 9.85776 25.14 10.2783 25.191 10.6928C25.2419 11.1074 25.3757 11.5074 25.5844 11.8692C26.0235 12.6331 26.7389 13.1395 27.5328 13.3369V21.6609C27.4923 21.6708 27.452 21.6816 27.412 21.693L17.9901 5.37453C18.0186 5.34727 18.0465 5.31953 18.0739 5.2913V5.29118ZM13.6785 5.37635L4.25677 21.6946C4.21603 21.6828 4.17505 21.6719 4.13387 21.6618V13.3369C4.92782 13.1395 5.64317 12.6331 6.0823 11.8692C6.29139 11.5067 6.42531 11.1058 6.47605 10.6905C6.52678 10.2751 6.49331 9.85375 6.37762 9.4516L13.5895 5.28777C13.6186 5.31782 13.6482 5.34739 13.6785 5.37623V5.37635ZM16.7049 6.11555L26.1245 22.4302C25.9087 22.636 25.7238 22.872 25.5754 23.1307C25.4273 23.3878 25.3166 23.6646 25.2466 23.953H6.42032C6.3502 23.6646 6.23942 23.3878 6.09131 23.1307C5.94237 22.8738 5.75778 22.6393 5.54303 22.4342L14.9644 6.11628C15.2469 6.19761 15.5394 6.23873 15.8333 6.23844C16.136 6.23844 16.4283 6.19561 16.7049 6.11555ZM18.1401 29.7793L25.3072 25.6412C25.2857 25.5737 25.2665 25.5054 25.2496 25.4366H6.41631C6.40633 25.4771 6.3955 25.5173 6.38394 25.5573L13.5861 29.7156C13.8769 29.4132 14.2259 29.1728 14.6122 29.0088C14.9984 28.8448 15.4138 28.7607 15.8333 28.7614C16.2676 28.7607 16.6972 28.8509 17.0945 29.0262C17.4918 29.2015 17.848 29.458 18.1401 29.7793Z" fill="#E535AB"/>
</svg>
