<svg width="33" height="35" viewBox="0 0 33 35" fill="none" xmlns="http://www.w3.org/2000/svg">
<path d="M15.4003 0.373401C16.2682 -0.123344 17.3985 -0.125588 18.2656 0.373401C22.6279 2.8383 26.9915 5.29934 31.353 7.76574C32.1734 8.22783 32.7221 9.1408 32.7137 10.086V24.9158C32.7198 25.9002 32.1169 26.835 31.2514 27.2866C26.9035 29.738 22.5578 32.1923 18.2106 34.6436C17.3249 35.15 16.1718 35.111 15.3137 34.563C14.0102 33.8074 12.7044 33.0555 11.4008 32.3006C11.1344 32.1418 10.8341 32.0154 10.646 31.7571C10.8123 31.533 11.1096 31.505 11.3512 31.4072C11.8953 31.2342 12.3951 30.9564 12.8949 30.6869C13.0213 30.6004 13.1756 30.6336 13.2968 30.711C14.4115 31.3501 15.5163 32.0078 16.6347 32.6408C16.8732 32.7785 17.1148 32.5956 17.3188 32.482C21.5854 30.0705 25.8573 27.6682 30.1232 25.256C30.2812 25.18 30.3686 25.0122 30.3558 24.8391C30.3588 19.947 30.3565 15.0541 30.3573 10.1621C30.3754 9.96563 30.2617 9.78501 30.084 9.7046C25.7512 7.26451 21.4206 4.82067 17.0885 2.37995C17.0135 2.32835 16.9245 2.30067 16.8335 2.30053C16.7424 2.3004 16.6534 2.32782 16.5782 2.3792C12.2461 4.82067 7.91625 7.26675 3.58415 9.70672C3.40715 9.78725 3.28835 9.96488 3.30942 10.1621C3.31017 15.0541 3.30942 19.947 3.30942 24.8398C3.30191 24.9243 3.32046 25.009 3.36258 25.0827C3.40471 25.1563 3.46837 25.2152 3.54501 25.2515C4.70105 25.9071 5.85859 26.558 7.01537 27.2113C7.66706 27.5621 8.46721 27.7705 9.18522 27.5018C9.81884 27.2745 10.263 26.628 10.2509 25.9552C10.2569 21.0917 10.2479 16.2275 10.2554 11.3647C10.2395 11.1488 10.4443 10.9705 10.6543 10.9908C11.2097 10.987 11.7659 10.9833 12.3214 10.9923C12.5532 10.987 12.7128 11.2195 12.6841 11.437C12.6819 16.3313 12.6901 21.2257 12.6804 26.12C12.6819 27.4244 12.146 28.8437 10.9395 29.4819C9.4531 30.2519 7.61595 30.0886 6.14753 29.3503C4.87632 28.7158 3.66318 27.967 2.41453 27.2873C1.54681 26.8381 0.946855 25.8996 0.952963 24.916V10.086C0.943864 9.12123 1.5144 8.19168 2.3603 7.73632C6.70748 5.28301 11.0539 2.82783 15.4003 0.373401Z" fill="#8CC84B"/>
<path d="M19.1928 10.646C21.0888 10.524 23.1185 10.5737 24.8246 11.5077C26.1456 12.2235 26.8779 13.7257 26.9013 15.1932C26.8644 15.3912 26.6574 15.5004 26.4685 15.4868C25.9184 15.486 25.3681 15.4943 24.818 15.4831C24.5847 15.492 24.4491 15.2769 24.4198 15.0706C24.2617 14.3684 23.8788 13.673 23.2179 13.3343C22.2033 12.8263 21.0269 12.8519 19.9206 12.8625C19.113 12.9053 18.2446 12.9753 17.5603 13.4502C17.035 13.81 16.8755 14.5362 17.063 15.1211C17.2397 15.541 17.7245 15.6765 18.1211 15.8014C20.406 16.399 22.8273 16.3396 25.0686 17.126C25.9965 17.4466 26.9042 18.0699 27.2219 19.0414C27.6373 20.3436 27.4552 21.9 26.5288 22.9453C25.7775 23.8056 24.6833 24.2738 23.5919 24.5281C22.1401 24.8518 20.6334 24.86 19.159 24.7163C17.7726 24.5582 16.3299 24.194 15.2596 23.2494C14.3444 22.4547 13.8974 21.2165 13.9418 20.0215C13.9524 19.8196 14.1533 19.6789 14.3466 19.6955C14.9006 19.691 15.4546 19.6895 16.0085 19.6962C16.2298 19.6804 16.3938 19.8716 16.4052 20.0802C16.5074 20.7492 16.7588 21.4514 17.3422 21.848C18.4681 22.5744 19.8808 22.5246 21.1699 22.5449C22.238 22.4976 23.4369 22.4832 24.3085 21.7773C24.7683 21.3747 24.9046 20.7011 24.7803 20.1215C24.6456 19.6323 24.1338 19.4043 23.6943 19.2552C21.4387 18.5417 18.9904 18.8006 16.7566 17.9937C15.8497 17.6732 14.9728 17.0673 14.6244 16.1356C14.1382 14.817 14.361 13.1861 15.3845 12.176C16.3825 11.1713 17.8231 10.7844 19.1928 10.6459V10.646Z" fill="#8CC84B"/>
</svg>
