<svg width="32" height="31" viewBox="0 0 32 31" fill="none" xmlns="http://www.w3.org/2000/svg">
<path d="M15.7206 0C7.77856 0 8.27445 3.42502 8.27445 3.42502L8.28327 6.97344H15.8622V8.03877H5.27302C5.27302 8.03877 0.190884 7.4656 0.190884 15.4346C0.190884 23.4038 4.62669 23.1211 4.62669 23.1211H7.27397V19.4231C7.27397 19.4231 7.13126 15.012 11.639 15.012H19.156C19.156 15.012 23.3792 15.0798 23.3792 10.953V4.12951C23.3792 4.12951 24.0207 0 15.7206 0ZM11.5416 2.38624C11.7207 2.38608 11.8981 2.42104 12.0635 2.48913C12.229 2.55721 12.3794 2.65708 12.5061 2.78301C12.6327 2.90895 12.7331 3.05848 12.8016 3.22306C12.87 3.38763 12.9052 3.56402 12.905 3.74212C12.9052 3.92022 12.87 4.09661 12.8016 4.26118C12.7331 4.42575 12.6327 4.57529 12.5061 4.70123C12.3794 4.82716 12.229 4.92703 12.0635 4.99511C11.8981 5.06319 11.7207 5.09815 11.5416 5.09799C11.3625 5.09815 11.1851 5.06319 11.0196 4.99511C10.8541 4.92703 10.7038 4.82716 10.5771 4.70123C10.4505 4.57529 10.3501 4.42575 10.2816 4.26118C10.2131 4.09661 10.178 3.92022 10.1781 3.74212C10.178 3.56402 10.2131 3.38763 10.2816 3.22306C10.3501 3.05848 10.4505 2.90895 10.5771 2.78301C10.7038 2.65708 10.8541 2.55721 11.0196 2.48913C11.1851 2.42104 11.3625 2.38608 11.5416 2.38624Z" fill="url(#paint0_linear_1449_443)"/>
<path d="M15.9462 30.9493C23.8882 30.9493 23.3924 27.5243 23.3924 27.5243L23.3835 23.976H15.8044V22.9107H26.3937C26.3937 22.9107 31.4758 23.4838 31.4758 15.5146C31.4758 7.54552 27.04 7.82814 27.04 7.82814H24.3927V11.526C24.3927 11.526 24.5354 15.9372 20.0277 15.9372H12.5107C12.5107 15.9372 8.28745 15.8694 8.28745 19.9963V26.8199C8.28745 26.8199 7.64615 30.9493 15.9461 30.9493H15.9462ZM20.1252 28.5633C19.9461 28.5635 19.7688 28.5285 19.6033 28.4604C19.4378 28.3924 19.2874 28.2925 19.1608 28.1666C19.0341 28.0406 18.9337 27.8911 18.8652 27.7265C18.7968 27.5619 18.7616 27.3856 18.7618 27.2075C18.7616 27.0293 18.7967 26.8529 18.8652 26.6884C18.9336 26.5238 19.0341 26.3742 19.1607 26.2483C19.2874 26.1223 19.4377 26.0224 19.6032 25.9543C19.7687 25.8863 19.9461 25.8513 20.1252 25.8515C20.3043 25.8513 20.4817 25.8863 20.6472 25.9543C20.8127 26.0224 20.963 26.1223 21.0897 26.2482C21.2163 26.3742 21.3168 26.5237 21.3852 26.6883C21.4537 26.8528 21.4888 27.0292 21.4887 27.2073C21.4888 27.3854 21.4537 27.5618 21.3852 27.7264C21.3168 27.891 21.2163 28.0405 21.0897 28.1664C20.963 28.2924 20.8127 28.3922 20.6472 28.4603C20.4817 28.5284 20.3043 28.5634 20.1252 28.5632V28.5633Z" fill="url(#paint1_linear_1449_443)"/>
<defs>
<linearGradient id="paint0_linear_1449_443" x1="3.19735" y1="2.7837" x2="18.6157" y2="18.1335" gradientUnits="userSpaceOnUse">
<stop stop-color="#387EB8"/>
<stop offset="1" stop-color="#366994"/>
</linearGradient>
<linearGradient id="paint1_linear_1449_443" x1="12.7136" y1="12.5853" x2="29.2754" y2="28.3291" gradientUnits="userSpaceOnUse">
<stop stop-color="#FFE052"/>
<stop offset="1" stop-color="#FFC331"/>
</linearGradient>
</defs>
</svg>
