<?xml version="1.0" encoding="iso-8859-1"?>
<!-- Uploaded to: SVG Repo, www.svgrepo.com, Generator: SVG Repo Mixer Tools -->
<svg fill="#000000" height="800px" width="800px" version="1.1" id="Capa_1" xmlns="http://www.w3.org/2000/svg" xmlns:xlink="http://www.w3.org/1999/xlink" 
	 viewBox="0 0 59.098 59.098" xml:space="preserve">
<g>
	<g>
		<path d="M29.612,23.459c-1.93,0-3.5,1.57-3.5,3.5s1.57,3.5,3.5,3.5s3.5-1.57,3.5-3.5S31.542,23.459,29.612,23.459z M29.612,28.459
			c-0.827,0-1.5-0.673-1.5-1.5s0.673-1.5,1.5-1.5s1.5,0.673,1.5,1.5S30.439,28.459,29.612,28.459z"/>
		<path d="M42.736,33.084c0.188-0.401,0.357-0.811,0.508-1.231c0.034-0.095,0.072-0.188,0.104-0.284
			c0.135-0.403,0.25-0.814,0.35-1.231c0.023-0.095,0.052-0.189,0.073-0.285c0.218-0.998,0.34-2.031,0.34-3.094
			c0-3.568-1.302-6.834-3.447-9.363c-0.001-0.002-0.002-0.004-0.003-0.005c-0.012-0.014-0.025-0.025-0.037-0.039
			c-0.324-0.379-0.669-0.739-1.031-1.083c-0.052-0.05-0.107-0.096-0.16-0.146c-0.337-0.312-0.689-0.607-1.055-0.886
			c-0.058-0.044-0.117-0.088-0.175-0.131c-0.374-0.277-0.761-0.535-1.162-0.775c-0.053-0.032-0.104-0.065-0.158-0.096
			c-0.435-0.254-0.883-0.487-1.345-0.695c-0.011-0.005-0.021-0.012-0.033-0.017c-0.002-0.001-0.003-0.001-0.005-0.001
			c-1.802-0.805-3.792-1.262-5.89-1.262c-2.137,0-4.161,0.477-5.989,1.311c-0.003,0.001-0.005,0.001-0.008,0.002
			c-0.014,0.006-0.026,0.015-0.04,0.021c-0.458,0.211-0.901,0.445-1.332,0.701c-0.05,0.03-0.099,0.06-0.149,0.091
			c-0.397,0.242-0.781,0.502-1.151,0.78c-0.065,0.048-0.129,0.095-0.193,0.145c-0.348,0.27-0.681,0.555-1.003,0.854
			c-0.07,0.065-0.143,0.126-0.211,0.192c-0.339,0.328-0.662,0.672-0.968,1.032c-0.026,0.031-0.057,0.058-0.083,0.089
			c-0.002,0.002-0.003,0.005-0.005,0.008c-2.1,2.516-3.367,5.75-3.367,9.275c0,0.507,0.027,1.008,0.078,1.502
			c0,0.001,0,0.002,0,0.004c0.003,0.031,0.011,0.06,0.015,0.09c0.054,0.488,0.132,0.969,0.233,1.442
			c0.026,0.119,0.062,0.234,0.091,0.352c0.096,0.397,0.202,0.789,0.33,1.172c0.034,0.102,0.075,0.202,0.111,0.303
			c0.149,0.415,0.314,0.821,0.498,1.218c0.027,0.058,0.056,0.116,0.084,0.174c0.219,0.455,0.46,0.897,0.724,1.324
			c0.005,0.009,0.009,0.018,0.015,0.027c0.002,0.003,0.005,0.005,0.006,0.008c2.56,4.124,7.116,6.885,12.316,6.885
			c0.021,0,0.042-0.003,0.063-0.003s0.043,0.003,0.064,0.003c0.443,0,0.892-0.03,1.343-0.075c0.006-0.001,0.013-0.001,0.019-0.002
			c0.739-0.074,1.486-0.201,2.235-0.392c0.067-0.017,0.123-0.052,0.183-0.081c3.516-0.987,6.489-3.265,8.383-6.293
			c0.002-0.002,0.004-0.004,0.005-0.007c0.005-0.008,0.009-0.017,0.014-0.025c0.266-0.428,0.509-0.871,0.731-1.327
			C42.68,33.2,42.709,33.142,42.736,33.084z M42.111,26.974l-4.158-1.629c-0.121-0.628-0.313-1.232-0.565-1.803l2.547-3.618
			c1.371,2.006,2.176,4.427,2.176,7.035C42.112,26.964,42.111,26.969,42.111,26.974z M41.894,29.236
			c-0.034,0.185-0.075,0.369-0.117,0.553c-0.04,0.171-0.084,0.339-0.131,0.507c-0.058,0.206-0.116,0.412-0.185,0.616
			c-0.033,0.1-0.072,0.197-0.108,0.295c-0.204,0.556-0.441,1.101-0.727,1.63l-3.751-1.471c0.022-0.037,0.038-0.076,0.06-0.113
			c0.126-0.214,0.242-0.434,0.349-0.66c0.028-0.06,0.059-0.118,0.086-0.178c0.259-0.58,0.457-1.192,0.581-1.831
			c0.011-0.057,0.016-0.116,0.027-0.173c0.043-0.246,0.077-0.495,0.098-0.748c0.003-0.039,0.012-0.077,0.015-0.115l3.832,1.502
			C41.912,29.11,41.906,29.174,41.894,29.236z M35.235,30.204c-0.015,0.026-0.031,0.051-0.047,0.077
			c-0.184,0.309-0.392,0.605-0.628,0.882c-1.149,1.35-2.838,2.222-4.73,2.285c-0.805,0.011-1.616-0.121-2.397-0.418
			c-0.092-0.035-0.187-0.051-0.283-0.058c-0.985-0.405-1.85-1.043-2.523-1.848c-0.223-0.267-0.42-0.552-0.596-0.848
			c-0.021-0.036-0.044-0.071-0.065-0.107c-0.168-0.296-0.312-0.605-0.432-0.922c-0.016-0.041-0.031-0.082-0.045-0.124
			c-0.114-0.321-0.203-0.65-0.266-0.985c-0.008-0.042-0.012-0.085-0.019-0.127c-0.057-0.347-0.093-0.698-0.093-1.053
			c0-0.277,0.023-0.548,0.057-0.818c0.097-0.769,0.328-1.495,0.67-2.157c0.094-0.182,0.196-0.358,0.306-0.528
			c0.009-0.014,0.017-0.029,0.026-0.043c0.857-1.311,2.169-2.281,3.686-2.706c0.559-0.157,1.146-0.247,1.755-0.247
			c0.575,0,1.13,0.082,1.661,0.223c0.213,0.056,0.423,0.124,0.628,0.201c0.005,0.002,0.011,0.004,0.016,0.006
			c0.201,0.076,0.397,0.163,0.588,0.258c0.01,0.005,0.02,0.009,0.029,0.014c0.185,0.093,0.364,0.196,0.538,0.305
			c0.015,0.009,0.03,0.018,0.045,0.028c0.166,0.106,0.325,0.221,0.481,0.342c0.021,0.016,0.043,0.031,0.063,0.047
			c0.148,0.118,0.289,0.244,0.426,0.374c0.023,0.022,0.049,0.043,0.072,0.065c0.137,0.134,0.267,0.277,0.393,0.423
			c0.018,0.021,0.038,0.04,0.055,0.061c0.28,0.335,0.526,0.701,0.735,1.09c0.373,0.695,0.619,1.465,0.718,2.28
			c0,0.002,0,0.005,0,0.007c0.03,0.254,0.052,0.512,0.052,0.774c0,0.36-0.036,0.716-0.096,1.068
			c-0.006,0.039-0.011,0.078-0.018,0.117c-0.064,0.343-0.157,0.679-0.275,1.006c-0.012,0.035-0.025,0.069-0.038,0.103
			C35.562,29.581,35.412,29.899,35.235,30.204z M32.081,35.128l0.006,4.083c-0.744,0.15-1.513,0.228-2.297,0.239
			c-0.155,0.001-0.311,0-0.465-0.006c-0.156-0.004-0.311-0.014-0.466-0.024c-0.257-0.018-0.515-0.038-0.772-0.073l-0.006-4.034
			c0.326,0.06,0.658,0.097,0.996,0.118c0.013,0.001,0.026,0.001,0.039,0.002c0.165,0.01,0.329,0.025,0.496,0.025
			c0.08,0,0.158-0.01,0.237-0.012c0.194-0.003,0.387-0.014,0.58-0.029c0.034-0.003,0.068-0.007,0.102-0.01
			C31.056,35.358,31.576,35.274,32.081,35.128z M22.322,31.326l-3.747,1.468c-0.277-0.519-0.508-1.053-0.707-1.597
			c-0.04-0.109-0.083-0.216-0.12-0.327c-0.062-0.184-0.113-0.372-0.166-0.559c-0.054-0.192-0.105-0.385-0.15-0.581
			c-0.036-0.159-0.07-0.319-0.1-0.48c-0.015-0.082-0.024-0.167-0.038-0.25l3.836-1.504c0.003,0.044,0.013,0.087,0.016,0.132
			c0.019,0.236,0.049,0.469,0.087,0.7c0.013,0.076,0.02,0.153,0.035,0.229c0.121,0.633,0.313,1.241,0.566,1.817
			c0.031,0.069,0.066,0.136,0.099,0.205c0.099,0.21,0.205,0.415,0.32,0.615C22.278,31.237,22.296,31.284,22.322,31.326z
			 M19.225,20.016l2.558,3.634c-0.222,0.522-0.391,1.072-0.505,1.641l-4.165,1.633C17.121,24.369,17.898,21.994,19.225,20.016z
			 M20.62,18.297c0.151-0.156,0.307-0.306,0.466-0.454c0.093-0.087,0.186-0.172,0.282-0.256c0.193-0.169,0.39-0.335,0.594-0.492
			c0.05-0.039,0.101-0.075,0.151-0.113c0.505-0.378,1.036-0.723,1.592-1.023l2.323,3.299c-0.025,0.012-0.047,0.027-0.072,0.039
			c-0.254,0.121-0.5,0.255-0.739,0.4c-0.045,0.027-0.089,0.053-0.133,0.081c-0.254,0.161-0.5,0.333-0.735,0.519
			c-0.015,0.012-0.031,0.022-0.046,0.034c-0.504,0.404-0.959,0.866-1.36,1.373c-0.015,0.019-0.033,0.035-0.048,0.054l-2.367-3.361
			C20.56,18.364,20.589,18.329,20.62,18.297z M33.097,19.214l2.329-3.307c0.282,0.149,0.558,0.311,0.829,0.482
			c0.016,0.01,0.033,0.02,0.049,0.03c0.254,0.162,0.501,0.336,0.743,0.515c0.042,0.031,0.085,0.063,0.127,0.095
			c0.23,0.175,0.454,0.358,0.671,0.549c0.049,0.043,0.097,0.088,0.146,0.132c0.21,0.19,0.417,0.384,0.613,0.588
			c0.006,0.006,0.011,0.012,0.016,0.018l-2.361,3.353c-0.012-0.015-0.026-0.027-0.037-0.042c-0.2-0.247-0.411-0.484-0.637-0.707
			c-0.005-0.005-0.011-0.01-0.016-0.015c-0.221-0.217-0.456-0.42-0.699-0.612c-0.046-0.036-0.093-0.07-0.14-0.105
			c-0.215-0.163-0.436-0.315-0.666-0.457c-0.046-0.028-0.092-0.056-0.138-0.084c-0.26-0.154-0.527-0.295-0.804-0.421
			C33.114,19.224,33.106,19.218,33.097,19.214z M33.547,15.103l-2.459,3.493c-0.48-0.085-0.972-0.137-1.476-0.137
			c-0.544,0-1.075,0.056-1.592,0.155l-2.445-3.473c1.268-0.435,2.623-0.682,4.037-0.682C30.987,14.459,32.308,14.691,33.547,15.103z
			 M19.675,34.511l3.933-1.541c0.71,0.709,1.549,1.287,2.472,1.711l0.006,4.264C23.501,38.182,21.269,36.604,19.675,34.511z
			 M34.085,38.617l-0.006-4.441c0.542-0.337,1.046-0.726,1.498-1.172l3.942,1.546C38.127,36.364,36.253,37.782,34.085,38.617z"/>
		<path d="M58.762,34.758c-0.428-0.979-1.212-1.733-2.206-2.123l-4.773-1.871c0.212-1.238,0.328-2.508,0.328-3.805
			c0-6.005-2.369-11.463-6.216-15.502l3.179-4.515c0.615-0.874,0.854-1.935,0.671-2.987c-0.184-1.053-0.766-1.971-1.64-2.586
			c-1.802-1.268-4.302-0.836-5.572,0.969l-3.089,4.389c-2.972-1.451-6.309-2.267-9.833-2.267c-3.561,0-6.93,0.835-9.926,2.315
			l-3.124-4.438c-1.269-1.802-3.771-2.236-5.572-0.968c-1.805,1.27-2.239,3.77-0.969,5.574l3.233,4.592
			C9.45,15.566,7.111,20.993,7.111,26.96c0,1.281,0.113,2.536,0.32,3.759L2.54,32.635c-2.053,0.806-3.068,3.131-2.264,5.185
			c0.617,1.575,2.13,2.54,3.729,2.54c0.484,0,0.978-0.089,1.455-0.276l4.698-1.842c3.339,5.736,9.137,9.871,15.943,10.942
			l0.007,5.278c0.004,2.203,1.798,3.994,4.002,3.994c0.001,0,0.003,0,0.005,0c2.206-0.004,3.997-1.802,3.993-4.006L34.1,49.008
			c6.367-1.294,11.761-5.287,14.942-10.726l4.594,1.801c0.479,0.188,0.971,0.276,1.455,0.276c1.598,0,3.111-0.965,3.729-2.54
			C59.21,36.824,59.189,35.737,58.762,34.758z M44.168,3.488c0.636-0.902,1.885-1.118,2.787-0.485
			c0.901,0.636,1.119,1.886,0.484,2.788l-3.003,4.264c-1.002-0.879-2.078-1.675-3.225-2.367L44.168,3.488z M12.14,3.003
			c0.35-0.245,0.751-0.363,1.148-0.363c0.629,0,1.249,0.296,1.639,0.848l2.994,4.254c-0.006,0.004-0.011,0.008-0.017,0.012
			c-1.137,0.695-2.205,1.492-3.197,2.371l-3.051-4.333C11.021,4.889,11.239,3.639,12.14,3.003z M4.729,38.222
			c-1.025,0.399-2.188-0.105-2.592-1.133c-0.402-1.026,0.107-2.19,1.133-2.593l4.587-1.797c0.344,1.304,0.805,2.56,1.366,3.76
			L4.729,38.222z M32.107,54.452c0.002,1.103-0.894,2.001-1.996,2.003c-0.001,0-0.002,0-0.003,0c-1.102,0-1.999-0.896-2.001-1.997
			L28.1,49.403c0.261,0.017,0.523,0.03,0.786,0.038c0.159,0.006,0.319,0.01,0.476,0.012c0.084,0.001,0.166,0.006,0.25,0.006
			c0.078,0,0.154-0.005,0.231-0.006c0.172-0.002,0.347-0.006,0.519-0.013c0.585-0.019,1.165-0.058,1.738-0.122L32.107,54.452z
			 M32.943,47.163c-0.002,0-0.004-0.001-0.006,0c-0.572,0.094-1.112,0.161-1.636,0.21c-0.559,0.046-1.119,0.086-1.689,0.086
			c-0.549,0-1.088-0.04-1.625-0.082c-0.254-0.022-0.5-0.039-0.771-0.071c-0.001,0-0.002,0-0.003,0
			c-6.824-0.801-12.63-4.958-15.717-10.78c-0.001-0.001-0.001-0.003-0.001-0.005c-0.036-0.068-0.065-0.138-0.1-0.206
			c-0.195-0.379-0.385-0.761-0.557-1.154c-0.107-0.243-0.2-0.491-0.297-0.737c-0.127-0.324-0.249-0.65-0.36-0.982
			c-0.074-0.219-0.147-0.438-0.213-0.658c-0.549-1.849-0.855-3.801-0.855-5.826c0-5.714,2.355-10.885,6.14-14.606h0.001
			c0.007-0.006,0.014-0.012,0.02-0.018c0.364-0.357,0.742-0.699,1.132-1.029c0.183-0.155,0.374-0.3,0.562-0.448
			c0.292-0.23,0.588-0.454,0.892-0.667c0.169-0.12,0.339-0.239,0.511-0.353c3.231-2.129,7.092-3.378,11.243-3.378
			c3.497,0,6.79,0.884,9.674,2.435l0.001,0.001c0.167,0.09,0.328,0.193,0.492,0.288c0.328,0.188,0.652,0.383,0.969,0.589
			c0.232,0.151,0.46,0.308,0.686,0.468c0.228,0.162,0.45,0.331,0.671,0.502c0.621,0.481,1.223,0.99,1.793,1.544
			c0.001,0.001,0.003,0.002,0.005,0.003c3.824,3.726,6.21,8.921,6.21,14.67c0,1.449-0.156,2.862-0.443,4.227l0,0
			c0,0.001,0,0.002-0.001,0.003c-0.113,0.537-0.254,1.063-0.408,1.583c-0.072,0.241-0.153,0.48-0.234,0.719
			c-0.107,0.317-0.222,0.629-0.344,0.939c-0.098,0.249-0.193,0.5-0.302,0.745c-0.191,0.436-0.398,0.863-0.619,1.282
			c-0.018,0.035-0.033,0.071-0.052,0.105c-0.001,0.001,0,0.002-0.001,0.003C44.76,42.1,39.346,46.11,32.943,47.163z M56.959,37.089
			c-0.403,1.026-1.567,1.532-2.592,1.133l-4.385-1.719c0.564-1.199,1.026-2.455,1.373-3.758l4.471,1.752
			c0.498,0.195,0.89,0.572,1.104,1.062C57.143,36.048,57.153,36.592,56.959,37.089z"/>
	</g>
</g>
</svg>