<svg width="80" height="80" viewBox="0 0 80 80" fill="none" xmlns="http://www.w3.org/2000/svg">
<circle cx="40" cy="40" r="40" fill="#0059B7"/>
<path fill-rule="evenodd" clip-rule="evenodd" d="M23.3333 28.3333C23.3333 25.5719 25.5719 23.3333 28.3333 23.3333H51.6666C54.4281 23.3333 56.6666 25.5719 56.6666 28.3333V45.8585C56.6666 48.1458 54.8124 50 52.5251 50H51.6666V54.8656C51.6666 56.2631 50.0501 57.0401 48.9588 56.1671L41.25 50H28.3333C25.5719 50 23.3333 47.7615 23.3333 45V28.3333ZM28.3333 31.6667C28.3333 30.7462 29.0795 30 30 30H46.6666C47.5871 30 48.3333 30.7462 48.3333 31.6667C48.3333 32.5872 47.5871 33.3333 46.6666 33.3333H30C29.0795 33.3333 28.3333 32.5872 28.3333 31.6667ZM28.3333 38.3333C28.3333 37.4129 29.0795 36.6667 30 36.6667H40C40.9205 36.6667 41.6666 37.4129 41.6666 38.3333C41.6666 39.2538 40.9205 40 40 40H30C29.0795 40 28.3333 39.2538 28.3333 38.3333Z" fill="white"/>
<circle cx="55" cy="25" r="5" fill="#56C124"/>
</svg>
