<svg width="19" height="18" viewBox="0 0 19 18" fill="none" xmlns="http://www.w3.org/2000/svg">
<path fill-rule="evenodd" clip-rule="evenodd" d="M9.5 3C7.42893 3 5.75 4.67893 5.75 6.75C5.75 8.84093 6.95877 11.9005 9.5 14.6665C12.0412 11.9005 13.25 8.84093 13.25 6.75C13.25 4.67893 11.5711 3 9.5 3ZM4.25 6.75C4.25 3.85051 6.60051 1.5 9.5 1.5C12.3995 1.5 14.75 3.85051 14.75 6.75C14.75 9.48915 13.1267 13.184 10.0303 16.2803C9.73744 16.5732 9.26256 16.5732 8.96967 16.2803C5.87333 13.184 4.25 9.48915 4.25 6.75Z" fill="#424242"/>
<path fill-rule="evenodd" clip-rule="evenodd" d="M9.5 7.5C9.91421 7.5 10.25 7.16421 10.25 6.75C10.25 6.33579 9.91421 6 9.5 6C9.08579 6 8.75 6.33579 8.75 6.75C8.75 7.16421 9.08579 7.5 9.5 7.5ZM9.5 9C10.7426 9 11.75 7.99264 11.75 6.75C11.75 5.50736 10.7426 4.5 9.5 4.5C8.25736 4.5 7.25 5.50736 7.25 6.75C7.25 7.99264 8.25736 9 9.5 9Z" fill="#424242"/>
</svg>
