<svg width="14.25px" height="14.25px" viewBox="0 0 19 20" fill="none" xmlns="http://www.w3.org/2000/svg">
<path fill-rule="evenodd" clip-rule="evenodd" d="M3.55028 3.8962C3.32374 4.12299 3.11601 4.40119 2.9817 4.64343C2.81302 4.93951 2.68848 5.26418 2.6134 5.60175L2.57433 5.8057C1.95861 8.92961 2.74057 11.7241 5.32193 14.2871C7.01562 15.9687 8.29993 16.6598 10.0585 16.912C10.3434 16.9529 10.6411 16.9836 10.9952 17.0098L11.7234 17.0541C12.1297 17.0751 12.8068 17.1088 13.0379 17.122C13.3423 17.1393 13.7451 17.0811 14.2863 16.9543L14.3683 16.9303C14.8409 16.7634 15.2723 16.4926 15.6335 16.1309C16.9555 14.8075 16.9555 12.6618 15.6335 11.3384L15.5157 11.226C14.2378 10.0623 12.2836 10.0517 10.9937 11.1998L10.8408 11.3382L10.0235 12.1564C9.84442 12.3357 9.56242 12.3599 9.35534 12.2139C8.92458 11.9101 7.78004 10.7899 7.50066 10.4081C7.34878 10.2006 7.37083 9.91316 7.55259 9.73128L8.27265 9.01086L8.33424 8.96075L8.42569 8.87602C8.44218 8.86013 8.45898 8.84364 8.47564 8.82696C9.83574 7.46537 9.83574 5.25779 8.47564 3.8962C7.11554 2.5346 4.91038 2.5346 3.55028 3.8962ZM4.65503 5.00216C5.405 4.25138 6.62093 4.25138 7.37089 5.00216C8.12085 5.75295 8.12085 6.97021 7.37089 7.721C7.32449 7.76745 7.27615 7.81121 7.22602 7.85224L6.44811 8.62503C5.72102 9.35263 5.63281 10.5023 6.24033 11.3325C6.62054 11.852 7.88705 13.0916 8.45555 13.4925L8.56523 13.5649C9.38116 14.0671 10.443 13.9483 11.1283 13.2623L11.8839 12.5057L11.8942 12.5004L11.967 12.4292C12.68 11.7313 13.8227 11.7375 14.5288 12.4444C15.2406 13.157 15.2406 14.3124 14.5288 15.025L14.4073 15.1363C14.2818 15.2414 14.1443 15.328 13.9978 15.395L13.8796 15.4426L13.6788 15.4868L13.4667 15.5265C13.3071 15.5532 13.1915 15.5642 13.1267 15.5605L11.5404 15.4781L11.1201 15.4507L10.7555 15.42C10.5847 15.4036 10.429 15.3851 10.2801 15.3638C8.87227 15.1618 7.88844 14.6325 6.42212 13.1766C4.2915 11.0611 3.63111 8.87291 4.06644 6.32877L4.11198 6.08144C4.15325 5.82813 4.22969 5.60986 4.34334 5.41032C4.41254 5.28562 4.53288 5.12445 4.65503 5.00216Z" fill="white"/>
</svg>
