<svg width="17" height="35" viewBox="0 0 17 35" fill="none" xmlns="http://www.w3.org/2000/svg">
<path d="M8.05653 0.0957031L8.99574 1.84995C9.2069 2.17367 9.43566 2.46021 9.7051 2.72707C10.4951 3.50284 11.2314 4.33081 11.9091 5.20532C13.5005 7.28329 14.5738 9.59093 15.3404 12.0867C15.8001 13.6113 16.0497 15.1752 16.0684 16.7566C16.1454 21.4846 14.5156 25.5443 11.2294 28.9182C10.6949 29.4533 10.1174 29.9441 9.50274 30.3859C9.17721 30.3859 9.02324 30.1377 8.88906 29.9091C8.64472 29.4853 8.4821 29.0198 8.40956 28.5366C8.29408 27.9646 8.2182 27.3926 8.25559 26.802V26.5351C8.22919 26.4783 7.94215 0.230224 8.05653 0.0957031Z" fill="#599636"/>
<path d="M8.05656 0.0376255C8.01807 -0.0389313 7.97958 0.0190331 7.94108 0.0562179C7.95978 0.439002 7.8256 0.780227 7.61555 1.10614C7.38459 1.42987 7.07886 1.67813 6.77202 1.94498C5.06736 3.41269 3.72562 5.18553 2.65114 7.16835C1.22142 9.8369 0.484569 12.6968 0.275611 15.7077C0.17993 16.7937 0.620942 20.6259 0.965173 21.7316C1.90439 24.6671 3.59145 27.1267 5.77671 29.2616C6.31341 29.7756 6.88749 30.2524 7.48137 30.7107C7.65404 30.7107 7.67274 30.5576 7.71233 30.4438C7.78803 30.2004 7.84574 29.9519 7.88499 29.7001L8.26992 26.8413L8.05656 0.0376255Z" fill="#6CAC48"/>
<path d="M8.99578 31.5472C9.03428 31.1098 9.24544 30.7467 9.47529 30.3847C9.24434 30.2895 9.07277 30.1003 8.9386 29.8892C8.8229 29.6894 8.72713 29.4788 8.65265 29.2604C8.3843 28.4598 8.32712 27.6199 8.25013 26.8018V26.3064C8.15445 26.383 8.13465 27.0304 8.13465 27.1266C8.07869 27.9913 7.96331 28.8511 7.78932 29.7C7.73213 30.0434 7.69364 30.3858 7.48138 30.6909C7.48138 30.7292 7.48138 30.7675 7.50008 30.8243C7.84541 31.8349 7.93999 32.864 7.99828 33.9128V34.2956C7.99828 34.7528 7.97959 34.6565 8.36121 34.8096C8.51518 34.8665 8.68675 34.8862 8.84072 34.9999C8.95619 34.9999 8.97489 34.9048 8.97489 34.8282L8.9177 34.1994V32.4451C8.899 32.1389 8.95619 31.8349 8.99468 31.5483L8.99578 31.5472Z" fill="#C2BFBF"/>
</svg>
