<svg width="36" height="35" viewBox="0 0 36 35" fill="none" xmlns="http://www.w3.org/2000/svg">
<path d="M33.0409 27.0701C31.1191 27.0218 29.6296 27.2158 28.3804 27.7492C28.02 27.8946 27.4434 27.8947 27.3953 28.3555C27.5875 28.5496 27.6116 28.8649 27.7797 29.1315C28.0683 29.6164 28.5725 30.2712 29.029 30.6109C29.5334 30.9988 30.0381 31.3867 30.5664 31.7263C31.5034 32.3083 32.5605 32.6477 33.4734 33.2298C34.0021 33.5691 34.5303 34.0059 35.0588 34.3696C35.3231 34.5633 35.4912 34.8789 35.8277 35V34.9274C35.6594 34.709 35.6113 34.3938 35.4433 34.1513C35.2033 33.9088 34.9627 33.6905 34.7225 33.448C34.0259 32.5024 33.1611 31.6778 32.2242 30.9988C31.4555 30.4653 29.7736 29.7378 29.4614 28.8405C29.4614 28.8405 29.4373 28.8163 29.4134 28.7921C29.9418 28.7436 30.5664 28.5496 31.0711 28.404C31.8878 28.1856 32.6325 28.2343 33.4734 28.016C33.8577 27.919 34.2421 27.7977 34.6264 27.6765V27.4583C34.1942 27.0218 33.8818 26.4398 33.4253 26.0275C32.2002 24.9603 30.8547 23.9177 29.4614 23.0447C28.7166 22.5597 27.7556 22.2444 26.9629 21.8322C26.6748 21.6865 26.1942 21.6139 26.0261 21.3714C25.5935 20.838 25.3532 20.1348 25.041 19.5042C24.3446 18.1703 23.6717 16.6911 23.071 15.2848C22.6388 14.3389 22.3745 13.393 21.846 12.5202C19.3716 8.39763 16.6809 5.89986 12.549 3.45045C11.66 2.94128 10.603 2.723 9.47388 2.45636C8.8735 2.43197 8.27271 2.3836 7.67219 2.35921C7.28777 2.18944 6.90335 1.72878 6.56699 1.5105C5.19791 0.637394 1.6662 -1.25391 0.657239 1.24386C0.00853249 2.82002 1.61829 4.37192 2.17061 5.17241C2.57933 5.73009 3.10763 6.36052 3.39595 6.9911C3.56413 7.40312 3.61204 7.83995 3.78023 8.27636C4.16478 9.34307 4.5249 10.5316 5.02959 11.526C5.29388 12.0351 5.58205 12.5686 5.91842 13.0294C6.11063 13.296 6.44686 13.4174 6.51907 13.8538C6.18284 14.3389 6.15868 15.0665 5.96633 15.6727C5.10153 18.413 5.43803 21.808 6.66309 23.8207C7.04737 24.4267 7.96037 25.7609 9.18556 25.2514C10.2667 24.815 10.0265 23.4328 10.3385 22.2203C10.4109 21.9289 10.3628 21.7352 10.5069 21.5412V21.5898C10.8432 22.2686 11.1795 22.9236 11.4918 23.6025C12.2366 24.7906 13.5337 26.0275 14.6148 26.8521C15.1916 27.2884 15.6479 28.0403 16.3687 28.307V28.2341H16.3205C16.1764 28.0159 15.9601 27.919 15.768 27.7491C15.3357 27.3128 14.8551 26.7792 14.5188 26.2942C13.51 24.936 12.6209 23.4326 11.8282 21.8806C11.4439 21.129 11.1074 20.3044 10.7952 19.5527C10.6509 19.2614 10.6509 18.8251 10.4108 18.6797C10.0504 19.2132 9.52193 19.674 9.25764 20.3287C8.80142 21.3714 8.75323 22.6567 8.58505 23.9903C8.48894 24.0148 8.53686 23.9903 8.4888 24.0391C7.72024 23.8448 7.45596 23.0447 7.1675 22.3656C6.44672 20.644 6.32659 17.8794 6.95141 15.8909C7.11959 15.3816 7.84037 13.7812 7.55206 13.2962C7.4079 12.8354 6.92724 12.5686 6.66309 12.2049C6.35089 11.7441 6.01439 11.1623 5.79829 10.6529C5.22166 9.29485 4.93335 7.7913 4.3088 6.43328C4.02049 5.80271 3.51622 5.14816 3.10763 4.56609C2.65127 3.9114 2.14672 3.45045 1.78633 2.6745C1.66634 2.40786 1.49802 1.9713 1.69023 1.68027C1.73828 1.48625 1.83425 1.41363 2.02659 1.36512C2.33893 1.0982 3.2279 1.43774 3.53997 1.58326C4.42893 1.94677 5.17361 2.28659 5.91842 2.79576C6.25465 3.03829 6.61504 3.4991 7.04737 3.62036H7.55192C8.32076 3.78999 9.18542 3.66887 9.90621 3.887C11.1796 4.29916 12.3326 4.90549 13.3657 5.56032C16.5129 7.57303 19.1071 10.4346 20.861 13.8538C21.1494 14.4114 21.2693 14.921 21.5336 15.5028C22.0383 16.6911 22.6629 17.9037 23.1671 19.0677C23.6717 20.2073 24.1521 21.3714 24.8729 22.3173C25.2333 22.8263 26.6745 23.0932 27.3233 23.36C27.8038 23.5781 28.5486 23.7723 28.9809 24.0389C29.7977 24.548 30.6144 25.1303 31.3833 25.6879C31.7677 25.9789 32.9687 26.5852 33.0409 27.0701Z" fill="#00546B"/>
<path d="M8.53674 5.99658C8.12843 5.99658 7.84025 6.04537 7.55194 6.11799V6.16649H7.59999C7.79234 6.55454 8.12843 6.82132 8.36855 7.16072C8.5609 7.54863 8.72895 7.93681 8.92129 8.32486C8.94518 8.30047 8.96921 8.27635 8.96921 8.27635C9.30571 8.03369 9.47376 7.64578 9.47376 7.06371C9.3296 6.89408 9.30557 6.72431 9.18544 6.55454C9.04142 6.31187 8.72895 6.19074 8.53674 5.99658Z" fill="#00546B"/>
</svg>
