<svg width="35" height="35" viewBox="0 0 35 35" fill="none" xmlns="http://www.w3.org/2000/svg">
<path d="M34.5985 20.9658C34.3939 20.3478 33.8579 19.9173 33.1647 19.8141C32.8378 19.7654 32.4635 19.7861 32.0205 19.8772C31.2485 20.0361 30.6757 20.0965 30.2576 20.1082C31.8355 17.4516 33.1186 14.4222 33.8572 11.5705C35.0516 6.9593 34.4133 4.85862 33.6675 3.90845C31.6937 1.39343 28.8139 0.0423418 25.3398 0.00100091C23.4865 -0.021597 21.8595 0.343293 21.0108 0.605695C20.2206 0.466651 19.3709 0.389021 18.4794 0.374664C16.8082 0.348078 15.3316 0.711373 14.0698 1.45804C13.3713 1.22249 12.2503 0.890429 10.9556 0.67854C7.91072 0.180056 5.45661 0.568475 3.66155 1.83303C1.48791 3.3641 0.480277 6.02428 0.666634 9.73964C0.725821 10.9193 1.38754 14.5083 2.42943 17.9121C3.02823 19.8686 3.66675 21.4932 4.32727 22.7414C5.26399 24.5114 6.26629 25.5537 7.3915 25.928C8.02216 26.1375 9.16803 26.2842 10.3732 25.2833C10.526 25.4678 10.7298 25.6511 11.0003 25.8214C11.3438 26.0374 11.7638 26.2139 12.1833 26.3185C13.6951 26.6954 15.1112 26.6012 16.3193 26.0729C16.3268 26.2872 16.3325 26.4919 16.3373 26.6687C16.3453 26.9554 16.3533 27.2366 16.3639 27.4995C16.4354 29.2773 16.5567 30.6596 16.9161 31.6268C16.9359 31.68 16.9624 31.7611 16.9904 31.8471C17.1697 32.3945 17.4695 33.3109 18.2322 34.0286C19.022 34.772 19.9774 35 20.8524 35C21.2913 35 21.71 34.9426 22.0772 34.8641C23.3862 34.5843 24.873 34.1582 25.9485 32.6311C26.9653 31.1875 27.4596 29.0131 27.549 25.5872C27.5606 25.4903 27.5713 25.3977 27.5816 25.3096L27.6029 25.1286L27.8424 25.1496L27.9042 25.1537C29.2374 25.2143 30.8677 24.9324 31.869 24.4686C32.6601 24.1025 35.1954 22.7677 34.5985 20.9658Z" fill="black"/>
<path d="M32.3188 21.3162C28.3544 22.1318 28.0817 20.7933 28.0817 20.7933C32.2675 14.5997 34.0173 6.73791 32.5074 4.81376C28.3878 -0.434944 21.2568 2.04737 21.1377 2.11171L21.0995 2.11862C20.3162 1.95645 19.4397 1.85994 18.4545 1.84386C16.6607 1.81462 15.3 2.31283 14.2674 3.09366C14.2674 3.09366 1.5463 -2.13232 2.13803 9.66621C2.26387 12.1762 5.74575 28.6582 9.89867 23.6799C11.4166 21.8594 12.8833 20.3202 12.8833 20.3202C13.6117 20.8027 14.4838 21.0489 15.398 20.9605L15.469 20.9004C15.4469 21.1264 15.457 21.3475 15.4974 21.6092C14.4275 22.8012 14.742 23.0104 12.6033 23.4495C10.4391 23.8943 11.7104 24.686 12.5405 24.8931C13.5468 25.1439 15.8748 25.4994 17.4478 23.3035L17.3851 23.5541C17.8042 23.889 18.0985 25.7319 18.0492 27.4027C17.9999 29.0733 17.967 30.2204 18.2972 31.1163C18.6276 32.0123 18.9567 34.0281 21.7684 33.4274C24.1176 32.9254 25.335 31.6244 25.5045 29.4542C25.6246 27.9114 25.8966 28.1395 25.9137 26.7601L26.1319 26.1071C26.3835 24.0158 26.1719 23.341 27.6192 23.6549L27.9711 23.6857C29.0362 23.734 30.4305 23.5148 31.2489 23.1355C33.0109 22.3201 34.056 20.9585 32.3185 21.3162H32.3188Z" fill="#336791"/>
<path d="M15.012 10.7888C14.6548 10.7392 14.3312 10.7851 14.1675 10.9087C14.0756 10.9782 14.047 11.0588 14.0393 11.1142C14.0188 11.2611 14.122 11.4235 14.1854 11.5073C14.3648 11.7444 14.6269 11.9074 14.8863 11.9433C14.9239 11.9486 14.9614 11.951 14.9986 11.951C15.4311 11.951 15.8245 11.6151 15.8592 11.3672C15.9025 11.0567 15.4505 10.8497 15.012 10.7889V10.7888ZM26.8472 10.7986C26.8131 10.5552 26.3788 10.4859 25.9666 10.543C25.555 10.6002 25.1559 10.7855 25.1892 11.0294C25.2158 11.2191 25.5594 11.5429 25.9659 11.5429C26.0003 11.5429 26.035 11.5406 26.0699 11.5357C26.3413 11.4982 26.5405 11.3264 26.6351 11.2273C26.7791 11.0763 26.8625 10.908 26.8472 10.7986Z" fill="white"/>
<path d="M33.638 21.2236C33.4868 20.7678 33.0002 20.6212 32.1919 20.7876C29.7918 21.2816 28.9322 20.9394 28.65 20.7322C30.5156 17.8981 32.0503 14.4723 32.8783 11.276C33.2704 9.76191 33.4871 8.35579 33.5048 7.20967C33.5244 5.95176 33.3095 5.02737 32.8664 4.46269C31.0799 2.18628 28.4578 0.965188 25.2839 0.931689C23.1018 0.90723 21.2582 1.46407 20.9008 1.62066C20.1482 1.43403 19.3277 1.31944 18.4345 1.30482C16.7964 1.27837 15.3805 1.66945 14.2082 2.46662C13.699 2.2776 12.383 1.8271 10.7737 1.56855C7.99136 1.12191 5.78039 1.46035 4.20261 2.57496C2.31997 3.90505 1.45084 6.28262 1.6192 9.64148C1.67585 10.7715 2.32157 14.2479 3.34054 17.5771C4.68184 21.959 6.13991 24.4396 7.67396 24.9499C7.85352 25.0096 8.06054 25.0513 8.28889 25.0513C8.8485 25.0513 9.53461 24.7998 10.2484 23.944C11.1191 22.9024 12.0198 21.8862 12.9493 20.8965C13.5524 21.2192 14.2149 21.3995 14.8925 21.4176C14.8938 21.4352 14.8955 21.4529 14.8971 21.4705C14.7805 21.6092 14.6663 21.7499 14.5545 21.8925C14.085 22.4868 13.9873 22.6106 12.4761 22.9208C12.0462 23.0094 10.9044 23.244 10.8876 24.0421C10.8695 24.9141 12.2373 25.2803 12.3932 25.3192C12.9362 25.4547 13.4595 25.5216 13.9584 25.5216C15.1719 25.5216 16.2398 25.1239 17.0932 24.3544C17.0669 27.463 17.1969 30.5263 17.5712 31.4596C17.8778 32.2236 18.6267 34.0909 20.9923 34.0908C21.3394 34.0908 21.7215 34.0505 22.1418 33.9606C24.6107 33.4329 25.6828 32.3447 26.0975 29.9458C26.3195 28.6637 26.7003 25.6022 26.8795 23.96C27.2575 24.0776 27.7442 24.1314 28.2704 24.1313C29.3677 24.1313 30.634 23.8988 31.4281 23.5313C32.3201 23.1181 33.9299 22.1044 33.638 21.2236ZM27.7585 10.1267C27.7504 10.6115 27.6834 11.0516 27.6125 11.511C27.5361 12.0051 27.4572 12.5159 27.4374 13.1361C27.4178 13.7396 27.4934 14.367 27.5664 14.9738C27.7141 16.1994 27.8657 17.4612 27.279 18.7062C27.1815 18.534 27.0947 18.356 27.0191 18.1733C26.9461 17.997 26.7878 17.7139 26.5685 17.322C25.7155 15.7965 23.7179 12.2242 24.7405 10.7665C25.0451 10.3326 25.8181 9.88647 27.7585 10.1267ZM25.4065 1.91337C28.2504 1.97598 30.5 3.03689 32.0927 5.06645C33.3143 6.62319 31.9691 13.7066 28.075 19.8175C28.0358 19.7678 27.9964 19.7183 27.9569 19.669L27.9075 19.6076C28.9138 17.9504 28.7171 16.3107 28.5419 14.857C28.4699 14.2604 28.4019 13.6969 28.4193 13.1676C28.4371 12.6066 28.5115 12.1254 28.5835 11.6601C28.6719 11.0868 28.7619 10.4936 28.7371 9.79422C28.7556 9.72084 28.7631 9.63417 28.7533 9.53128C28.69 8.86065 27.9222 6.85356 26.3572 5.03694C25.5011 4.0433 24.2528 2.93134 22.5482 2.18136C23.2814 2.02982 24.2839 1.88851 25.4065 1.91337ZM9.49302 23.3176C8.70653 24.2606 8.16345 24.0799 7.98483 24.0206C6.82109 23.6335 5.47073 21.1807 4.2802 17.2912C3.25003 13.9257 2.64803 10.5414 2.60031 9.59243C2.44994 6.59115 3.17951 4.49951 4.76889 3.37546C7.3555 1.54635 11.6081 2.64116 13.317 3.19641C13.2924 3.2206 13.2668 3.2432 13.2426 3.26779C10.4384 6.09174 10.5049 10.9165 10.5119 11.2115C10.5116 11.3253 10.5212 11.4864 10.5343 11.708C10.5825 12.5195 10.6724 14.0299 10.4324 15.7403C10.2095 17.3297 10.7009 18.8854 11.7802 20.0085C11.891 20.1235 12.0074 20.233 12.1291 20.3366C11.6487 20.8497 10.6045 21.9844 9.49302 23.3176ZM12.4895 19.3307C11.6196 18.4254 11.2245 17.1663 11.4054 15.8759C11.6587 14.0691 11.5652 12.4955 11.515 11.65C11.5079 11.5317 11.5016 11.4281 11.498 11.3463C11.9077 10.9841 13.806 9.96982 15.1599 10.2791C15.7776 10.4202 16.154 10.8397 16.3105 11.5612C17.1205 15.297 16.4177 16.854 15.8531 18.1052C15.7367 18.363 15.6267 18.6066 15.5329 18.8587L15.4601 19.0535C15.2758 19.5462 15.1044 20.0042 14.9982 20.4392C14.0733 20.4365 13.1737 20.0425 12.4895 19.3306V19.3307ZM12.6315 24.3687C12.3614 24.3015 12.1186 24.1846 11.9761 24.0877C12.0951 24.0319 12.3069 23.9558 12.6743 23.8803C14.4522 23.5154 14.7268 23.2578 15.3264 22.4987C15.4638 22.3245 15.6196 22.1273 15.8355 21.8869L15.8357 21.8867C16.1571 21.5278 16.3041 21.5886 16.5708 21.699C16.7868 21.788 16.9973 22.0581 17.0826 22.3554C17.123 22.4957 17.1684 22.7621 17.02 22.9695C15.7675 24.7183 13.9423 24.6959 12.6315 24.3687ZM21.9359 33.0027C19.761 33.4675 18.9909 32.3608 18.4834 31.0957C18.1559 30.279 17.9948 26.5961 18.1091 22.5288C18.1105 22.4747 18.1028 22.4225 18.0879 22.3733C18.0745 22.2762 18.0542 22.1801 18.0271 22.0859C17.8573 21.4941 17.4434 20.9991 16.9468 20.7938C16.7495 20.7124 16.3875 20.5628 15.9524 20.6738C16.0451 20.2926 16.206 19.862 16.3805 19.3958L16.4537 19.1998C16.5361 18.9787 16.6395 18.7497 16.7488 18.5072C17.3398 17.1981 18.1491 15.405 17.2707 11.3543C16.9417 9.83702 15.8431 9.09607 14.1776 9.26822C13.1791 9.37123 12.2656 9.77295 11.81 10.0033C11.712 10.0528 11.6224 10.1006 11.5387 10.1471C11.6659 8.61846 12.1463 5.76154 13.9435 3.95397C15.0751 2.81609 16.5821 2.25407 18.4182 2.28438C22.0361 2.3434 24.3561 4.19484 25.6654 5.73775C26.7936 7.06717 27.4046 8.40644 27.6484 9.12877C25.8148 8.94281 24.5677 9.30371 23.9356 10.205C22.5603 12.1654 24.688 15.9704 25.7106 17.7991C25.8981 18.1342 26.0599 18.4239 26.1109 18.5469C26.4439 19.3517 26.875 19.889 27.1897 20.2811C27.2862 20.4013 27.3798 20.5179 27.451 20.6197C26.8956 20.7794 25.8981 21.1482 25.989 22.9921C25.9157 23.9173 25.3944 28.2489 25.1295 29.7793C24.7798 31.8012 24.0337 32.5542 21.9359 33.0029V33.0027ZM31.0144 22.6428C30.4466 22.9056 29.4962 23.1027 28.5935 23.1451C27.5964 23.1916 27.0888 23.0337 26.9693 22.9365C26.9134 21.7875 27.3422 21.6675 27.7961 21.5404C27.8674 21.5204 27.937 21.5009 28.0042 21.4775C28.0459 21.5114 28.0916 21.545 28.1417 21.578C28.9432 22.1055 30.3726 22.1624 32.3906 21.747L32.4128 21.7426C32.1406 21.9963 31.6748 22.3369 31.0144 22.6428Z" fill="white"/>
</svg>
