<svg width="42" height="35" viewBox="0 0 42 35" fill="none" xmlns="http://www.w3.org/2000/svg">
<path d="M40.056 26.9577C37.8684 28.0979 26.5365 32.7573 24.1239 34.015C21.7114 35.2729 20.3712 35.2607 18.4653 34.3496C16.5596 33.4386 4.50035 28.5674 2.32801 27.529C1.2424 27.0103 0.671417 26.5722 0.671417 26.1584V22.0152C0.671417 22.0152 16.3711 18.5974 18.9056 17.6881C21.44 16.7788 22.3194 16.746 24.4762 17.536C26.6333 18.3263 39.5303 20.6532 41.662 21.4339L41.661 25.5186C41.6613 25.9282 41.1694 26.3775 40.056 26.9577Z" fill="#912626"/>
<path d="M40.0551 22.839C37.8677 23.9787 26.5361 28.6381 24.1236 29.8957C21.7112 31.1538 20.371 31.1415 18.4653 30.2304C16.5594 29.3199 4.50064 24.448 2.32846 23.4103C0.156277 22.3719 0.110803 21.6573 2.24455 20.8218C4.3783 19.9859 16.3709 15.2808 18.9058 14.3715C21.4401 13.4625 22.3194 13.4294 24.4762 14.2197C26.6331 15.0098 37.8972 19.4933 40.0286 20.2738C42.1607 21.0554 42.2425 21.6989 40.0551 22.839Z" fill="#C6302B"/>
<path d="M40.056 20.2533C37.8684 21.3937 26.5365 26.0528 24.1239 27.311C21.7114 28.5684 20.3712 28.5563 18.4653 27.6452C16.5594 26.7346 4.50035 21.863 2.32801 20.8246C1.2424 20.3058 0.671417 19.8684 0.671417 19.4545V15.3107C0.671417 15.3107 16.3711 11.8931 18.9056 10.9838C21.44 10.0745 22.3194 10.0415 24.4762 10.8317C26.6335 11.6219 39.5305 13.9483 41.662 14.7292L41.661 18.8143C41.6613 19.2237 41.1694 19.673 40.056 20.2533Z" fill="#912626"/>
<path d="M40.0551 16.1345C37.8677 17.2746 26.5361 21.9337 24.1236 23.1918C21.7112 24.4494 20.371 24.437 18.4653 23.526C16.5594 22.6155 4.50064 17.7437 2.32846 16.7058C0.156277 15.6678 0.110803 14.953 2.24455 14.1172C4.3783 13.2819 16.3711 8.57643 18.9058 7.66727C21.4401 6.75811 22.3194 6.72513 24.4762 7.51531C26.6331 8.30534 37.8972 12.7885 40.0286 13.5694C42.1607 14.3508 42.2425 14.9945 40.0551 16.1345Z" fill="#C6302B"/>
<path d="M40.056 13.3008C37.8684 14.4409 26.5365 19.1004 24.1239 20.3586C21.7114 21.6162 20.3712 21.6038 18.4653 20.6927C16.5594 19.7821 4.50035 14.9103 2.32801 13.8725C1.2424 13.3532 0.671417 12.9156 0.671417 12.5022V8.35826C0.671417 8.35826 16.3711 4.94082 18.9056 4.03166C21.44 3.12218 22.3194 3.08952 24.4762 3.87955C26.6335 4.66974 39.5305 6.99612 41.662 7.77702L41.661 11.862C41.6613 12.2711 41.1694 12.7204 40.056 13.3008Z" fill="#912626"/>
<path d="M40.0551 9.18221C37.8678 10.3223 26.5361 14.9817 24.1236 16.2393C21.7112 17.4969 20.371 17.4846 18.4653 16.574C16.5596 15.6629 4.50065 10.7914 2.32863 9.75335C0.156289 8.71546 0.110975 8.00053 2.24457 7.16486C4.37832 6.32936 16.3711 1.62457 18.9058 0.71509C21.4402 -0.194228 22.3194 -0.226893 24.4762 0.563297C26.6331 1.35349 37.8972 5.83667 40.0286 6.61757C42.1607 7.39832 42.2425 8.04216 40.0551 9.18221Z" fill="#C6302B"/>
<path d="M26.1757 5.15159L22.6515 5.51746L21.8626 7.41583L20.5883 5.29746L16.5189 4.93175L19.5554 3.83669L18.6443 2.15576L21.4873 3.26763L24.1673 2.39018L23.443 4.12827L26.1757 5.15159ZM21.6522 14.3613L15.0749 11.6334L24.4996 10.1867L21.6522 14.3613ZM12.5334 6.20677C15.3154 6.20677 17.5707 7.08103 17.5707 8.15927C17.5707 9.23783 15.3154 10.1119 12.5334 10.1119C9.75129 10.1119 7.496 9.23767 7.496 8.15927C7.496 7.08103 9.75129 6.20677 12.5334 6.20677Z" fill="white"/>
<path d="M30.3408 5.67057L35.9187 7.87478L30.3456 10.0769L30.3408 5.67041" fill="#621B1C"/>
<path d="M24.1698 8.11144L30.3408 5.67041L30.3456 10.0768L29.7405 10.3134L24.1698 8.11144Z" fill="#9A2928"/>
</svg>
