<svg width="49" height="35" viewBox="0 0 49 35" fill="none" xmlns="http://www.w3.org/2000/svg">
<path d="M48.4066 13.2123C48.2743 13.1073 47.0394 12.1748 44.4351 12.1748C43.7474 12.1778 43.0612 12.2368 42.3831 12.3512C41.8791 8.89641 39.0228 7.212 38.8947 7.13644L38.1954 6.73315L37.7354 7.39685C37.1595 8.28841 36.739 9.27123 36.4921 10.3035C36.0258 12.2757 36.3094 14.128 37.3112 15.7116C36.1015 16.3857 34.1609 16.5517 33.7682 16.5663H1.63922C0.80002 16.5675 0.119049 17.2457 0.114476 18.0848C0.0770005 20.8995 0.553871 23.6973 1.52161 26.3407C2.62839 29.2432 4.27498 31.3812 6.41721 32.6896C8.81774 34.1598 12.7178 34.9998 17.1387 34.9998C19.1359 35.0061 21.1293 34.8254 23.0929 34.4601C25.8223 33.9589 28.4488 33.0049 30.8636 31.6374C32.8534 30.4851 34.6441 29.0193 36.1667 27.2963C38.7121 24.4148 40.2285 21.2056 41.3563 18.3536H41.8057C44.5927 18.3536 46.3065 17.2384 47.2516 16.3038C47.8796 15.7078 48.3699 14.9817 48.6881 14.1763L48.8876 13.5925L48.4066 13.2123Z" fill="#2496ED"/>
<path d="M4.61731 15.6254H8.92273C9.13037 15.6254 9.29864 15.457 9.29864 15.2494V11.4144C9.2998 11.2068 9.13242 11.0375 8.92484 11.0364C8.92416 11.0364 8.92341 11.0364 8.92273 11.0364H4.61731C4.40966 11.0364 4.24139 11.2047 4.24139 11.4123V11.4144V15.2494C4.24139 15.457 4.40966 15.6254 4.61731 15.6254Z" fill="#2496ED"/>
<path d="M10.5505 15.6254H14.8559C15.0635 15.6254 15.2318 15.457 15.2318 15.2494V11.4144C15.233 11.2068 15.0656 11.0375 14.8579 11.0364C14.8572 11.0364 14.8565 11.0364 14.8558 11.0364H10.5504C10.3416 11.0364 10.1724 11.2056 10.1724 11.4144V15.2494C10.1736 15.4574 10.3425 15.6254 10.5505 15.6254Z" fill="#2496ED"/>
<path d="M16.5738 15.6254H20.8792C21.0869 15.6254 21.2551 15.457 21.2551 15.2494V11.4144C21.2563 11.2068 21.0889 11.0375 20.8813 11.0364C20.8806 11.0364 20.8798 11.0364 20.8791 11.0364H16.5737C16.3661 11.0364 16.1978 11.2047 16.1978 11.4123V11.4144V15.2494C16.1979 15.457 16.3662 15.6254 16.5738 15.6254Z" fill="#2496ED"/>
<path d="M22.5258 15.6254H26.8312C27.0392 15.6254 27.2081 15.4574 27.2093 15.2494V11.4144C27.2093 11.2056 27.04 11.0364 26.8312 11.0364H22.5258C22.3182 11.0364 22.1499 11.2047 22.1499 11.4123V11.4144V15.2494C22.1499 15.457 22.3182 15.6254 22.5258 15.6254Z" fill="#2496ED"/>
<path d="M10.5504 10.1082H14.8558C15.0637 10.107 15.2317 9.93809 15.2317 9.73016V5.8952C15.2317 5.68755 15.0634 5.51929 14.8558 5.51929H10.5504C10.3425 5.51929 10.1735 5.68721 10.1724 5.8952V9.73016C10.1735 9.9385 10.3421 10.107 10.5504 10.1082Z" fill="#2496ED"/>
<path d="M16.5737 10.1082H20.8791C21.0871 10.107 21.2551 9.93809 21.2551 9.73016V5.8952C21.2551 5.68755 21.0867 5.51929 20.8791 5.51929H16.5737C16.3661 5.51929 16.1978 5.68762 16.1978 5.8952V9.73016C16.1978 9.93809 16.3658 10.107 16.5737 10.1082Z" fill="#2496ED"/>
<path d="M22.5258 10.1082H26.8312C27.0396 10.107 27.2081 9.9385 27.2093 9.73016V5.8952C27.2081 5.68721 27.0392 5.51929 26.8312 5.51929H22.5258C22.3182 5.51929 22.1499 5.68762 22.1499 5.8952V9.73016C22.1499 9.93809 22.3179 10.107 22.5258 10.1082Z" fill="#2496ED"/>
<path d="M22.5258 4.58897H26.8312C27.0392 4.58897 27.2081 4.42098 27.2093 4.21306V0.375913C27.2081 0.167922 27.0392 0 26.8312 0H22.5258C22.3182 0 22.1499 0.168263 22.1499 0.375913V4.21299C22.1499 4.42064 22.3182 4.58897 22.5258 4.58897Z" fill="#2496ED"/>
<path d="M28.5302 15.6254H32.8356C33.0436 15.6254 33.2125 15.4574 33.2137 15.2494V11.4144C33.2137 11.2056 33.0444 11.0364 32.8356 11.0364H28.5302C28.3226 11.0364 28.1543 11.2047 28.1543 11.4123V11.4144V15.2494C28.1543 15.457 28.3226 15.6254 28.5302 15.6254Z" fill="#2496ED"/>
</svg>
