<svg width="32" height="19" viewBox="0 0 32 19" fill="none" xmlns="http://www.w3.org/2000/svg">
<path d="M8.81643 6.75675C8.81643 7.1396 8.85805 7.45001 8.93088 7.67765C9.01412 7.90529 9.11817 8.15363 9.26384 8.42265C9.31587 8.50543 9.33668 8.58821 9.33668 8.66064C9.33668 8.76411 9.27425 8.86759 9.13898 8.97106L8.48346 9.40564C8.38982 9.46772 8.29617 9.49877 8.21293 9.49877C8.10888 9.49877 8.00483 9.44703 7.90078 9.3539C7.75511 9.1987 7.63025 9.03314 7.5262 8.86759C7.42215 8.69168 7.3181 8.49508 7.20364 8.2571C6.39205 9.20904 5.37236 9.68502 4.14456 9.68502C3.27054 9.68502 2.5734 9.43668 2.06355 8.94001C1.55371 8.44335 1.29358 7.78112 1.29358 6.95335C1.29358 6.07383 1.60573 5.35987 2.24044 4.82181C2.87515 4.28376 3.71795 4.01473 4.78967 4.01473C5.14344 4.01473 5.50762 4.04577 5.89261 4.09751C6.27759 4.14924 6.67299 4.23202 7.08919 4.32515V3.5698C7.08919 2.78341 6.92271 2.235 6.60015 1.91424C6.26719 1.59347 5.70532 1.43827 4.90413 1.43827C4.53995 1.43827 4.16537 1.47966 3.78038 1.57278C3.3954 1.66591 3.02082 1.77973 2.65664 1.92459C2.49016 1.99702 2.3653 2.03841 2.29246 2.0591C2.21963 2.0798 2.1676 2.09014 2.12598 2.09014C1.98031 2.09014 1.90748 1.98667 1.90748 1.76938V1.26236C1.90748 1.09681 1.92829 0.972641 1.98031 0.90021C2.03234 0.827779 2.12598 0.755349 2.27165 0.682918C2.63583 0.496668 3.07284 0.341459 3.58269 0.217292C4.09254 0.0827779 4.6336 0.0206945 5.20587 0.0206945C6.44408 0.0206945 7.34931 0.30007 7.932 0.858821C8.50427 1.41757 8.79561 2.26605 8.79561 3.40424V6.75675H8.81643ZM4.59198 8.32953C4.93534 8.32953 5.28912 8.26744 5.6637 8.14328C6.03828 8.01911 6.37124 7.79147 6.65218 7.48105C6.81866 7.28446 6.94352 7.06716 7.00595 6.81883C7.06838 6.5705 7.11 6.27043 7.11 5.91862V5.48404C6.80825 5.41161 6.4857 5.34952 6.15273 5.30813C5.81977 5.26675 5.49722 5.24605 5.17466 5.24605C4.47752 5.24605 3.96767 5.38056 3.62431 5.65994C3.28094 5.93932 3.11446 6.33251 3.11446 6.84987C3.11446 7.33619 3.23932 7.69835 3.49945 7.94668C3.74917 8.20536 4.11335 8.32953 4.59198 8.32953ZM12.9472 9.44703C12.7599 9.44703 12.6351 9.41599 12.5518 9.34356C12.4686 9.28147 12.3958 9.13661 12.3333 8.94001L9.88814 0.941599C9.82571 0.734654 9.7945 0.60014 9.7945 0.527709C9.7945 0.362153 9.87774 0.269028 10.0442 0.269028H11.0639C11.2616 0.269028 11.3969 0.30007 11.4697 0.372501C11.553 0.434584 11.6154 0.579445 11.6778 0.776043L13.4259 7.62592L15.049 0.776043C15.1011 0.569098 15.1635 0.434584 15.2467 0.372501C15.33 0.310417 15.4757 0.269028 15.6629 0.269028H16.4953C16.693 0.269028 16.8283 0.30007 16.9115 0.372501C16.9948 0.434584 17.0676 0.579445 17.1092 0.776043L18.7532 7.70869L20.5533 0.776043C20.6157 0.569098 20.6886 0.434584 20.7614 0.372501C20.8447 0.310417 20.9799 0.269028 21.1672 0.269028H22.1349C22.3014 0.269028 22.395 0.351806 22.395 0.527709C22.395 0.579445 22.3846 0.631182 22.3742 0.693265C22.3638 0.755349 22.343 0.838126 22.3014 0.951946L19.7937 8.95036C19.7313 9.15731 19.6585 9.29182 19.5752 9.3539C19.492 9.41599 19.3567 9.45738 19.1798 9.45738H18.285C18.0873 9.45738 17.9521 9.42634 17.8688 9.3539C17.7856 9.28147 17.7127 9.14696 17.6711 8.94001L16.0583 2.26605L14.456 8.92967C14.4039 9.13661 14.3415 9.27113 14.2583 9.34356C14.175 9.41599 14.0294 9.44703 13.8421 9.44703H12.9472ZM26.3177 9.72641C25.7766 9.72641 25.2356 9.66432 24.7153 9.54016C24.1951 9.41599 23.7893 9.28147 23.5187 9.12627C23.3523 9.03314 23.2378 8.92967 23.1962 8.83654C23.1546 8.74342 23.1338 8.63995 23.1338 8.54682V8.01911C23.1338 7.80182 23.217 7.69835 23.3731 7.69835C23.4355 7.69835 23.4979 7.70869 23.5604 7.72939C23.6228 7.75008 23.7164 7.79147 23.8205 7.83286C24.1743 7.98807 24.5593 8.11224 24.9651 8.19501C25.3813 8.27779 25.787 8.31918 26.2033 8.31918C26.8588 8.31918 27.3686 8.20536 27.7224 7.97772C28.0762 7.75008 28.2634 7.41897 28.2634 6.99473C28.2634 6.70501 28.1698 6.46702 27.9825 6.27043C27.7952 6.07383 27.4415 5.89793 26.9316 5.73237L25.4229 5.26675C24.6633 5.02876 24.1014 4.67695 23.7581 4.21133C23.4147 3.75605 23.2378 3.24903 23.2378 2.71098C23.2378 2.27639 23.3315 1.89354 23.5187 1.56243C23.706 1.23132 23.9558 0.941599 24.2679 0.71396C24.5801 0.475973 24.9338 0.30007 25.35 0.175903C25.7662 0.0517362 26.2033 0 26.6611 0C26.89 0 27.1293 0.0103472 27.3582 0.041389C27.5975 0.0724307 27.816 0.11382 28.0345 0.155209C28.2426 0.206945 28.4403 0.258681 28.6276 0.320764C28.8149 0.382848 28.9606 0.444931 29.0646 0.507015C29.2103 0.589793 29.3144 0.672571 29.3768 0.765696C29.4392 0.848474 29.4704 0.962293 29.4704 1.10715V1.59347C29.4704 1.81077 29.3872 1.92459 29.2311 1.92459C29.1479 1.92459 29.0126 1.8832 28.8357 1.80042C28.2426 1.53139 27.5767 1.39688 26.838 1.39688C26.2449 1.39688 25.7766 1.49 25.4541 1.6866C25.1315 1.8832 24.9651 2.18327 24.9651 2.6075C24.9651 2.89723 25.0691 3.14556 25.2772 3.34216C25.4853 3.53876 25.8703 3.73535 26.4218 3.91126L27.8993 4.37688C28.6484 4.61487 29.1895 4.94598 29.5121 5.37022C29.8346 5.79445 29.9907 6.28077 29.9907 6.81883C29.9907 7.26376 29.897 7.6673 29.7202 8.01911C29.5329 8.37092 29.2831 8.68133 28.9606 8.92967C28.638 9.18835 28.253 9.3746 27.8056 9.50911C27.3374 9.65397 26.8484 9.72641 26.3177 9.72641Z" fill="#252F3E"/>
<path fill-rule="evenodd" clip-rule="evenodd" d="M28.2842 14.7551C24.861 17.2695 19.8873 18.6043 15.6109 18.6043C9.61758 18.6043 4.21737 16.4003 0.138597 12.7374C-0.183959 12.4477 0.107382 12.0545 0.492368 12.2821C4.9041 14.8275 10.3459 16.3693 15.9751 16.3693C19.7729 16.3693 23.9453 15.5829 27.7848 13.9687C28.357 13.71 28.8461 14.3412 28.2842 14.7551Z" fill="#FF9900"/>
<path fill-rule="evenodd" clip-rule="evenodd" d="M29.7097 13.1409C29.2727 12.5822 26.8172 12.8719 25.7038 13.0064C25.3709 13.0478 25.3189 12.7581 25.6206 12.5408C27.5767 11.175 30.7919 11.5681 31.1664 12.0234C31.541 12.4891 31.0624 15.6863 29.2311 17.2177C28.9502 17.4557 28.6797 17.3316 28.8045 17.0211C29.2207 15.9968 30.1468 13.6893 29.7097 13.1409Z" fill="#FF9900"/>
</svg>
