<svg width="40" height="40" viewBox="0 0 40 40" fill="none" xmlns="http://www.w3.org/2000/svg">
<path d="M15.4298 5.00078H24.6872L15.077 33.3332C15.0279 33.4779 14.9564 33.6141 14.8651 33.7369C14.7739 33.8597 14.6641 33.9675 14.5393 34.0565C14.4145 34.1456 14.2769 34.2148 14.1306 34.2615C13.9843 34.3082 13.8318 34.3323 13.6785 34.3323H6.4739C6.24003 34.3323 6.00929 34.2771 5.80123 34.1705C5.59295 34.0642 5.41316 33.9101 5.27678 33.7209C5.14032 33.5317 5.05104 33.313 5.01632 33.0827C4.98151 32.8525 5.00263 32.6172 5.07733 32.3967L14.0309 5.99912C14.0798 5.85444 14.1513 5.71832 14.2429 5.59543C14.334 5.47253 14.4443 5.3648 14.5686 5.27574C14.6934 5.18668 14.831 5.11745 14.9773 5.07078C15.1236 5.02411 15.2761 5 15.4294 5V5.00039L15.4298 5.00078Z" fill="url(#paint0_linear_1449_846)"/>
<path d="M32.4952 34.3323H24.1826C24.09 34.3323 23.9973 34.3237 23.9058 34.3062C23.8146 34.2891 23.7251 34.2634 23.6386 34.2296C23.5522 34.1957 23.4693 34.1537 23.3907 34.1047C23.3122 34.0554 23.2385 33.9989 23.1705 33.936L13.7375 25.1753C13.6377 25.0826 13.5682 24.9623 13.538 24.8299C13.5079 24.6975 13.5185 24.5592 13.5685 24.4328C13.6185 24.3065 13.7056 24.1981 13.8185 24.1217C13.9315 24.0455 14.0648 24.0046 14.2013 24.0046H28.8812L32.4944 34.3326L32.4952 34.3323Z" fill="#0078D4"/>
<path d="M24.7204 5.00075L18.2401 24.0066L28.8284 24.0043L32.4604 34.3323H24.1791C24.0935 34.3315 24.0078 34.3237 23.9234 34.3086C23.8389 34.2934 23.756 34.2712 23.6754 34.2417C23.5139 34.1831 23.3636 34.0975 23.2311 33.9885L16.8635 28.0786L15.0809 33.3063C15.0347 33.437 14.9714 33.5611 14.8924 33.675C14.734 33.9043 14.5175 34.0877 14.2647 34.2067C14.1388 34.2659 14.0056 34.3081 13.8685 34.3323H6.47815C6.24193 34.3331 6.00884 34.2771 5.79883 34.169C5.58878 34.0609 5.40798 33.9042 5.2717 33.712C5.13542 33.5198 5.04767 33.2979 5.01587 33.0648C4.98419 32.8317 5.00927 32.5944 5.08901 32.373L14.0281 6.01893C14.0746 5.87153 14.1446 5.73269 14.2354 5.60746C14.3257 5.48223 14.436 5.37178 14.5611 5.28077C14.6863 5.18976 14.8255 5.11898 14.9729 5.07153C15.1204 5.02409 15.2749 4.99997 15.4301 5.00075H24.7208H24.7204Z" fill="url(#paint1_linear_1449_846)"/>
<path d="M36.2075 32.3967C36.2823 32.6173 36.3033 32.8524 36.2689 33.0827C36.2342 33.3129 36.145 33.5316 36.0089 33.7209C35.8724 33.91 35.6927 34.0641 35.4845 34.1704C35.2764 34.2767 35.0457 34.3322 34.8117 34.3323H24.4941C24.7279 34.3323 24.9587 34.2767 25.1671 34.1705C25.3752 34.0643 25.5551 33.9099 25.6916 33.7209C25.8281 33.5319 25.9172 33.3129 25.952 33.0827C25.9868 32.8525 25.9657 32.6172 25.891 32.3967L16.9371 5.9983C16.8385 5.7075 16.6507 5.45477 16.4001 5.2757C16.2757 5.18663 16.1381 5.1178 15.9922 5.07113C15.8463 5.02446 15.6938 5.00073 15.5409 5.00073H25.8582C26.0115 5.00073 26.1636 5.02446 26.3099 5.07113C26.4558 5.1178 26.5934 5.18702 26.7182 5.2757C26.8425 5.36476 26.9524 5.47249 27.0436 5.59499C27.1347 5.7175 27.2059 5.85362 27.2551 5.9983L36.2091 32.3967H36.2075Z" fill="url(#paint2_linear_1449_846)"/>
<defs>
<linearGradient id="paint0_linear_1449_846" x1="18.8084" y1="7.17481" x2="9.28344" y2="35.4694" gradientUnits="userSpaceOnUse">
<stop stop-color="#114A8B"/>
<stop offset="1" stop-color="#0669BC"/>
</linearGradient>
<linearGradient id="paint1_linear_1449_846" x1="21.808" y1="20.3434" x2="19.5853" y2="21.1016" gradientUnits="userSpaceOnUse">
<stop stop-opacity="0.3"/>
<stop offset="0.1" stop-opacity="0.2"/>
<stop offset="0.3" stop-opacity="0.1"/>
<stop offset="0.6" stop-opacity="0.1"/>
<stop offset="1" stop-opacity="0"/>
</linearGradient>
<linearGradient id="paint2_linear_1449_846" x1="20.5801" y1="6.35027" x2="31.0367" y2="34.3632" gradientUnits="userSpaceOnUse">
<stop stop-color="#3CCBF4"/>
<stop offset="1" stop-color="#2892DF"/>
</linearGradient>
</defs>
</svg>
