<svg width="40" height="40" viewBox="0 0 40 40" fill="none" xmlns="http://www.w3.org/2000/svg">
<path d="M34.8043 17.4274C34.7199 17.3604 33.9322 16.7656 32.2711 16.7656C31.8325 16.7676 31.3948 16.8052 30.9622 16.8781C30.6407 14.6745 28.8188 13.6001 28.7372 13.5519L28.2911 13.2947L27.9977 13.718C27.6303 14.2867 27.3621 14.9136 27.2047 15.572C26.9073 16.83 27.0881 18.0115 27.7271 19.0215C26.9555 19.4515 25.7177 19.5574 25.4672 19.5667H4.97386C4.43858 19.5675 4.00422 20.0001 4.00131 20.5353C3.9774 22.3306 4.28157 24.1152 4.89884 25.8013C5.6048 27.6526 6.65507 29.0164 8.02148 29.8509C9.55266 30.7887 12.0403 31.3245 14.8602 31.3245C16.1341 31.3285 17.4056 31.2132 18.658 30.9802C20.399 30.6606 22.0743 30.052 23.6145 29.1798C24.8837 28.4448 26.0259 27.5098 26.9971 26.4108C28.6207 24.5728 29.5879 22.5259 30.3073 20.7068H30.5939C32.3716 20.7068 33.4647 19.9954 34.0675 19.3993C34.4682 19.0191 34.7809 18.556 34.9838 18.0423L35.1111 17.6699L34.8043 17.4274Z" fill="#2496ED"/>
<path d="M6.87344 18.9666H9.61964C9.75209 18.9666 9.85941 18.8592 9.85941 18.7268V16.2807C9.86015 16.1482 9.75339 16.0403 9.62099 16.0396C9.62055 16.0396 9.62007 16.0396 9.61964 16.0396H6.87344C6.74099 16.0396 6.63367 16.1469 6.63367 16.2793V16.2807V18.7268C6.63367 18.8592 6.74099 18.9666 6.87344 18.9666Z" fill="#2496ED"/>
<path d="M10.6578 18.9666H13.404C13.5364 18.9666 13.6438 18.8592 13.6438 18.7268V16.2807C13.6445 16.1482 13.5377 16.0403 13.4053 16.0396C13.4049 16.0396 13.4044 16.0396 13.4039 16.0396H10.6578C10.5246 16.0396 10.4166 16.1475 10.4166 16.2807V18.7268C10.4174 18.8595 10.5251 18.9666 10.6578 18.9666Z" fill="#2496ED"/>
<path d="M14.4998 18.9666H17.246C17.3785 18.9666 17.4858 18.8592 17.4858 18.7268V16.2807C17.4865 16.1482 17.3798 16.0403 17.2473 16.0396C17.2469 16.0396 17.2464 16.0396 17.246 16.0396H14.4998C14.3673 16.0396 14.26 16.1469 14.26 16.2793V16.2807V18.7268C14.2601 18.8592 14.3674 18.9666 14.4998 18.9666Z" fill="#2496ED"/>
<path d="M18.2963 18.9666H21.0425C21.1752 18.9666 21.2829 18.8595 21.2836 18.7268V16.2807C21.2836 16.1475 21.1757 16.0396 21.0425 16.0396H18.2963C18.1638 16.0396 18.0565 16.1469 18.0565 16.2793V16.2807V18.7268C18.0565 18.8592 18.1639 18.9666 18.2963 18.9666Z" fill="#2496ED"/>
<path d="M10.6579 15.4475H13.4041C13.5367 15.4468 13.6438 15.339 13.6438 15.2064V12.7603C13.6438 12.6278 13.5365 12.5205 13.4041 12.5205H10.6579C10.5252 12.5205 10.4175 12.6276 10.4167 12.7603V15.2064C10.4175 15.3393 10.525 15.4468 10.6579 15.4475Z" fill="#2496ED"/>
<path d="M14.4998 15.4475H17.246C17.3786 15.4468 17.4858 15.339 17.4858 15.2064V12.7603C17.4858 12.6278 17.3784 12.5205 17.246 12.5205H14.4998C14.3673 12.5205 14.26 12.6279 14.26 12.7603V15.2064C14.26 15.339 14.3672 15.4468 14.4998 15.4475Z" fill="#2496ED"/>
<path d="M18.2963 15.4475H21.0425C21.1754 15.4468 21.2829 15.3393 21.2836 15.2064V12.7603C21.2829 12.6276 21.1752 12.5205 21.0425 12.5205H18.2963C18.1638 12.5205 18.0565 12.6279 18.0565 12.7603V15.2064C18.0565 15.339 18.1637 15.4468 18.2963 15.4475Z" fill="#2496ED"/>
<path d="M18.2963 11.9271H21.0425C21.1752 11.9271 21.2829 11.8199 21.2836 11.6873V9.23977C21.2829 9.10711 21.1752 9 21.0425 9H18.2963C18.1638 9 18.0565 9.10733 18.0565 9.23977V11.6872C18.0565 11.8197 18.1639 11.9271 18.2963 11.9271Z" fill="#2496ED"/>
<path d="M22.1263 18.9666H24.8724C25.0051 18.9666 25.1128 18.8595 25.1136 18.7268V16.2807C25.1136 16.1475 25.0056 16.0396 24.8724 16.0396H22.1263C21.9938 16.0396 21.8865 16.1469 21.8865 16.2793V16.2807V18.7268C21.8865 18.8592 21.9938 18.9666 22.1263 18.9666Z" fill="#2496ED"/>
</svg>
