<svg width="40" height="40" viewBox="0 0 40 40" fill="none" xmlns="http://www.w3.org/2000/svg">
<path d="M24.8705 12.5666H26.0501L29.411 9.20578L29.5763 7.77977C23.3229 2.2605 13.7768 2.85521 8.25754 9.10855C6.72297 10.8457 5.60971 12.9118 5.00366 15.148C5.37799 14.994 5.79282 14.9697 6.18335 15.0767L12.9034 13.9683C12.9034 13.9683 13.2453 13.4028 13.4219 13.4384C16.4117 10.1554 21.4432 9.77294 24.8948 12.5666H24.8705Z" fill="#EA4335"/>
<path d="M34.1979 15.148C33.4249 12.3041 31.8401 9.74703 29.6347 7.79114L24.9192 12.5067C26.9107 14.1336 28.045 16.5853 27.9964 19.157V19.9948C30.3153 19.9948 32.1934 21.8745 32.1934 24.1918C32.1934 26.5106 30.3136 28.3887 27.9964 28.3887H19.6008L18.7631 29.2379V34.2726L19.6008 35.1104H27.9964C32.8091 35.1477 37.079 32.0283 38.5083 27.4327C39.9343 22.8354 38.1842 17.8444 34.1979 15.148Z" fill="#4285F4"/>
<path d="M11.1938 35.0634H19.5894V28.3434H11.1938C10.5959 28.3434 10.0044 28.2154 9.45993 27.9658L8.28024 28.3304L4.89673 31.6912L4.60181 32.8709C6.49936 34.3034 8.81499 35.0731 11.1938 35.0634Z" fill="#34A853"/>
<path d="M11.1939 13.2618C6.53018 13.2893 2.39964 16.2758 0.912065 20.6948C-0.575513 25.1138 0.907204 29.9913 4.60346 32.8336L9.47293 27.9642C7.35986 27.0097 6.42161 24.5239 7.37606 22.4109C8.33051 20.2978 10.8163 19.3595 12.9294 20.314C13.8595 20.7353 14.6049 21.4807 15.0262 22.4109L19.8957 17.5414C17.8231 14.8336 14.6033 13.2504 11.1939 13.2618Z" fill="#FBBC05"/>
</svg>
