<svg width="40" height="40" viewBox="0 0 40 40" fill="none" xmlns="http://www.w3.org/2000/svg">
<path d="M19.9282 4.08496L20.7631 5.64429C20.9508 5.93205 21.1541 6.18675 21.3936 6.42395C22.0958 7.11352 22.7503 7.8495 23.3527 8.62684C24.7673 10.4739 25.7214 12.5252 26.4028 14.7436C26.8114 16.0988 27.0333 17.489 27.0499 18.8947C27.1184 23.0973 25.6696 26.7059 22.7486 29.705C22.2734 30.1806 21.7601 30.6169 21.2138 31.0096C20.9244 31.0096 20.7875 30.7889 20.6683 30.5858C20.4511 30.209 20.3065 29.7952 20.2421 29.3657C20.1394 28.8573 20.072 28.3488 20.1052 27.8239V27.5867C20.0817 27.5361 19.8266 4.20454 19.9282 4.08496Z" fill="#599636"/>
<path d="M19.9282 4.03344C19.894 3.96539 19.8598 4.01692 19.8256 4.04997C19.8422 4.39022 19.7229 4.69354 19.5362 4.98324C19.3309 5.27099 19.0591 5.49167 18.7864 5.72888C17.2711 7.0335 16.0785 8.60936 15.1234 10.3719C13.8525 12.7439 13.1975 15.2861 13.0118 17.9624C12.9268 18.9278 13.3188 22.3342 13.6248 23.317C14.4596 25.9263 15.9592 28.1126 17.9017 30.0103C18.3787 30.4672 18.889 30.891 19.4169 31.2984C19.5704 31.2984 19.587 31.1623 19.6222 31.0612C19.6895 30.8448 19.7408 30.6239 19.7757 30.4001L20.1179 27.8589L19.9282 4.03344Z" fill="#6CAC48"/>
<path d="M20.763 32.0421C20.7972 31.6532 20.9849 31.3305 21.1892 31.0087C20.9839 30.9241 20.8314 30.7559 20.7122 30.5683C20.6093 30.3906 20.5242 30.2034 20.458 30.0093C20.2195 29.2977 20.1686 28.5511 20.1002 27.8239V27.3835C20.0152 27.4516 19.9976 28.0271 19.9976 28.1127C19.9478 28.8812 19.8452 29.6455 19.6906 30.4001C19.6398 30.7054 19.6055 31.0096 19.4169 31.2809C19.4169 31.3149 19.4169 31.3489 19.4335 31.3995C19.7405 32.2977 19.8245 33.2125 19.8763 34.1448V34.4851C19.8763 34.8914 19.8597 34.8059 20.1989 34.942C20.3358 34.9925 20.4883 35.01 20.6252 35.1111C20.7278 35.1111 20.7444 35.0266 20.7444 34.9585L20.6936 34.3995V32.8402C20.677 32.568 20.7278 32.2977 20.762 32.043L20.763 32.0421Z" fill="#C2BFBF"/>
</svg>
